<?xml version="1.0" encoding="utf-8"?>
<!-- Generator: Adobe Illustrator 21.0.0, SVG Export Plug-In . SVG Version: 6.00 Build 0)  -->
<svg version="1.1" id="Layer_1" xmlns="http://www.w3.org/2000/svg" xmlns:xlink="http://www.w3.org/1999/xlink" x="0px" y="0px"
	 viewBox="0 0 1000 1000" style="enable-background:new 0 0 1000 1000;" xml:space="preserve">
<style type="text/css">
	.st0{fill:#FFFFFF;}
	.st1{fill:#046A38;}
	.st2{fill:#FF671F;}
	.st3{fill:#FFFFFF;stroke:#000000;stroke-miterlimit:10;}
	.st4{fill:#06038D;}
</style>
<path class="st0" d="M537.8,347.3c1.7,0.1,3.8-0.6,5.4-0.1c0.9,0.4,1.5,1,1.9,1.8c0.4,0.7,0.7,2.4,2,2.1c0.3-0.7,1.5-1,2.1-1.6
	c0.5-0.6,0.9-1.3,1.1-2c2.2-0.2,4.5-0.4,6.5,0.5c1.3,0.6,2.4,2,4.1,1.6c0.6-0.2,1-0.7,1.5-0.9c1.6-0.7,2.7-0.7,4.4-1
	c1.1-0.2,1.1-0.3,1.2-1h-30.5C537.6,346.8,537.7,347,537.8,347.3z"/>
<path class="st0" d="M679.3,510.1c-0.2,0.6-0.4,1.6-0.3,2.2c-0.5,0.1-1,0.2-1.5,0.2s1.1-2,1.1-2c0.4-1,0.1-2.3,0.2-3.4
	C681.6,505.8,679.5,509.3,679.3,510.1z M683.3,511.9c-2.5,0.5-1.2-2.4-0.7-3.7c-0.1,0.1-0.2,0.1-0.2,0.1l0.4-0.5
	c-0.1,0.1-0.1,0.3-0.2,0.4c0.1-0.1,0.2-0.1,0.3-0.2c-0.3,0.6-0.5,1.3-0.3,2.1C682.7,510.9,683.4,511,683.3,511.9z M687.9,512.1
	c-1.4,0.1-2.1-5.3,0.5-5.3L688,507C689.1,507.1,688.2,510.9,687.9,512.1z M703.8,499c0.1,0,0,0.5-0.1,0.9s-0.2,0.8-0.2,1
	c-0.4,0.6-1,0.6-1.7,0.4c-0.1-0.1-0.8-0.4-0.9-0.5c-0.3-0.3-0.3-0.8-0.5-1c-0.5-0.4-1.5,0.1-1.1-1
	C700.4,498.8,703.2,497.7,703.8,499z M699.7,492.7c1.1,0.1,1.3,0.8,2,1.4c0.5,0.4,1.1,0.5,1.5,1.1c0.1,0.2,0.2,0.4,0.2,0.6
	c0.3,1.2,0.2,2.1-1.2,2.1c-0.6,0-1.8-0.3-2,0.5c0.3-1.6,0.9-2.9,0.5-4.5c-0.3,0.1-0.7-0.1-1-0.1C699.6,493.4,699.6,493,699.7,492.7z
	 M697.7,494.9c0.5-0.4,0.4-1.7,1.4-1.7c-0.3,0,1.1,1.2,1.1,1.1c0.2,0.4-0.2,0.7-0.3,1c0.1,0.1,0.1,0.1,0,0.1
	c-0.1,0.6-0.2,1.1-0.2,1.7c-0.5,0.1-0.9,0.1-1.1,0.7c-0.8,0.2-0.8-0.6-1.2-1c-0.5-0.5-1.1-0.4-1.7-0.4
	C695.3,494.7,697,495.4,697.7,494.9z M698.9,500.4c-0.1,0.5-0.1,1.4-0.2,1.7c-0.2,0.4-0.9,0.7-1,0c-1.4-0.1-2.4-0.5-3.7-0.8
	c0.3-0.4,0.9-0.2,1.4-0.3c0.3-0.4,0.5-0.6,0.8-0.9c0.5-0.5,0.1-2.2,1-2.4c0.4-0.1,1.4,0.7,2,0.7
	C699.1,499.3,698.9,499.6,698.9,500.4z M691.7,499.8c0.9-0.4,0.2-1.9,1-2.4c0.6-0.4,2.7-0.6,3.3-0.5c0.6,0.1-0.7,1.7-0.7,1.8
	c-0.2,0.5-0.1,1-0.9,1.4c-0.7,0.4-2.1-0.2-2.3,0.7c-0.1,0-0.4,0-0.5-0.1C691.7,500.5,691.7,500.1,691.7,499.8z M690.4,502.6
	c0.4-0.1,0.9,0,1.2-0.2c0.3-0.2,0.4-0.7,0.6-0.8c0.9-0.4,1.1,0.5,1,1.3c0,0.1,0,0.3-0.1,0.4c-0.1,0.8-2.5,0.6-3,0.5
	C690.2,503.3,690.2,502.9,690.4,502.6z M693.2,508c-0.2,1.5-0.1,2.7-0.9,3.9c-0.5,0.6-1.3,1-2,0.9c0.1-0.6,0.1-8.4,0.2-8.4
	c1.4-0.1,2.7-1.5,3.3,0.4C694,505.7,693.3,507.1,693.2,508z M694.6,502c0.6-0.1,0.5,0.3,0.8,0.4c0.5,0.2,0.9,0.3,1.6,0.3
	c0.1,0,0,0.5,0,0.6c-0.6,0-1,0-1.5,0.2c-0.1,0.1-0.1,0.1-0.2,0.1c-0.2,0.2-0.6,0.8-0.8,0.7C693.6,504.2,693.6,502.1,694.6,502z
	 M699.3,510.6c-1,0.1-1.4,0.2-1.7,1.2c-0.2,0.9,0.1,1.9-1.1,2.1c-0.1-1,0.1-2,0.1-3c0-1.6-0.6-1.3-1.9-1.4c0.1-0.4,0.5-0.5,0.9-0.4
	c-0.5-0.1,0.3-4.9,0.5-5.4c0.4,0.4,1.6,0.2,2.2,0.2c0.4,1,0.9,1.9,0.9,3C699.2,507.1,699.5,510.6,699.3,510.6z M699.2,502.6
	c-0.2-0.6-0.1-1.6,0.6-1.8c0.9-0.2,0.9,0.7,0.9,1.4c0,0.1,0,0.3-0.1,0.4C699.9,502.8,699.7,503.7,699.2,502.6z M704.5,511.4
	c-0.4,0.1-2,0.1-2.4-0.1c-0.7-0.4-0.5-1.5-0.6-2.2c-0.2-1.3-0.7-1-1.2-2c-0.3-0.6,0.3-2.1-0.6-2.1c-0.1-0.8-0.4-1.5,0.5-2
	c0.7-0.4,1.5-0.1,2,0.4c1.2,0.9,0.7,3.1,1.5,4.4c0.3,0.4,0.8,0.6,1.1,1C705.3,509.6,704.6,510.4,704.5,511.4z"/>
<path class="st1" d="M216.1,797.1c0-0.6,0.5-0.2,0.6,0.2l-0.1-0.1c0.2,0.3,0.3,0.5,0.3,0.8C216.7,797.7,216.1,797.5,216.1,797.1z
	 M223,791c-0.5,0.2-1.7-0.8-1.6-1.3c0.2-0.6,1.5-0.4,1.7,0.3C223.1,790.3,223,790.7,223,791z M223.8,775.2c0-0.3,0.2-0.4,0.3-0.6
	v0.3c0.2,0.2,0.4,0.2,0.5,0.4C224.3,775.3,224.1,775.3,223.8,775.2z M225.2,777.3c-0.1-0.4,0-0.5,0.2-0.7l0,0l0.1-0.1l-0.1,0.1
	c0.2-0.1,0.4-0.1,0.5-0.1C225.9,777,225.5,777.2,225.2,777.3z M228.5,808.7c0.7-0.6,1.5,0.4,0.9,1l0.3-0.4c-0.2,0.3-0.4,0.4-0.4,0.8
	C228.8,810.2,228,809.1,228.5,808.7z M229.6,842.6c-0.4-0.4,0.2-0.4,0.4-0.4c0.4,0.1,0.4,0.2,0.4,0.5
	C230.4,842.9,229.7,842.7,229.6,842.6z M230.6,818.8c0.3-0.1,0.7-0.1,1,0c0.1,0.3,0.1,0.7,0.1,1l-0.4-0.2c0.4,0.4,0.7,0.5,0.5,1.2
	c-0.2-0.1-0.7-0.2-1-0.4C230.6,820.1,230.6,819.3,230.6,818.8z M231,840.5c0.1-0.3,0.2-0.5,0.4-0.5c0.2-0.1,0.6,0.1,0.8,0.3
	C232.3,840.5,231.1,840.5,231,840.5z M232.2,798C232.1,798.1,232.1,798.1,232.2,798c-1.5,1-0.7-1.5-0.5-2.2
	C232.3,796.2,232.9,797.5,232.2,798z M235.6,816.5c-0.5,0.1-1.3-0.5-0.7-0.9C235.6,815.2,235.9,816.4,235.6,816.5z M241.8,819.5
	c0.7-0.1,1,0.8,1.1,0.8C242,820.4,241.8,820.5,241.8,819.5z M242.1,831.6c0.1-0.7,0.1-1.4,0.3-2C246.3,829.6,242,832.5,242.1,831.6z
	 M247.8,809.8c-0.1-0.7-0.1-1.5,0-2.2c0.7-0.3,1.2,0.1,1.3,0.8C249,809.2,248.7,809.9,247.8,809.8z M249.1,809.2v-0.8
	C249.2,808.7,249.2,809,249.1,809.2z M248.8,794.3c0.2,0.3,0.4,0.5,0.3,1c-0.6-0.3-0.7-0.4-0.6-1c0.3-0.1,0.5-0.1,0.8,0H248.8z
	 M251.3,897.1c0.3,0-0.3-3.6,1.2-3.2c0.1,0.5,0.1,0.9,0.1,1.4l0.4-0.3C253.2,896.4,252.6,897.3,251.3,897.1z M256.8,802.1
	c0.3-0.4,0.1-1,0.6-1c0.3-0.1,0.8,0.4,0.7,0.7C258,802.4,257,801.8,256.8,802.1z M273.1,843.5c0,0.1-0.3,1.5-0.4,1.4
	c-0.7-0.8-0.2-2.1,0.4-3.2C273.1,842.3,273.1,842.9,273.1,843.5z M826.4,798.5c-0.8,0.1-1.6,0.1-2.4,0c-0.4-1.7,0.9-2.4,0.7-4.1
	c0.6,0.1,1.3,0.3,1.9,0.5c0.1,0.5-0.2,1-0.3,1.1C826.4,796.8,826.6,797.7,826.4,798.5z M856.7,885.1c0.2,0.3,0.3,0.6,0.3,0.9
	c0.1,0.3,0.2,0.8,0,1c-0.6,1.1-1.1,0.2-1.1-0.6C855.8,886,855.8,883.7,856.7,885.1z M855.3,773.7l-0.4,0.4c0.4,0.2,0.8,0.5,1.2,0.7
	c-0.5,0.1-1,0-1.5-0.1C854.5,774,854.8,774,855.3,773.7z M853.5,893.7c0.7,0.7,0.7,1.6,1.1,2.3c0.1,0.1,0.1,0.1,0.1,0.2
	c0.3,0.5,0.6,0.8,0.7,1.5c0.2,1.2-0.2,2.6-0.2,3.9c-0.4-0.5-0.8-0.9-1.4-1.4c0.1-0.8-0.2-1.8-0.1-2.7
	C852.2,897.2,852.6,894.6,853.5,893.7z M849.1,901.4c1-0.1,2,0.3,2.8,0.8c0.3,0.2,0.9,0.3,1,0.6c-0.1,0.1-3.9-0.7-3.9-0.5
	C849.1,902,849.1,901.7,849.1,901.4z M845.8,894c-1.2,0.1-1.2-1.8-0.6-1.6c-0.1,0.5,0.4,0.4,0.6,0.6C846,893.2,846,894,845.8,894z
	 M844.2,698.7l1,1c0.4,0.4,0.8,0.3,0.7,1c-0.3,0.2-0.9,0.3-1.2,0.4C843.8,700.4,843.7,699.6,844.2,698.7z M840.7,890.3
	c0.5-0.1,0.8-0.1,1.3,0c-0.1,0,0.1,1.3,0.1,1.5c0.2,0.5,0.4,0.9,0.6,1.3c0.5,0.7,1,1.3,0.6,2.3c-0.5,0.2-1.1,0.2-1.6,0
	C841.8,893.5,840.3,892.5,840.7,890.3z M839.1,887.4c0.3,0.8,1.2,0.3,0.9,1.4c-0.7-0.1-1.1-0.4-1.4-1
	C838.3,887.1,838.8,886.7,839.1,887.4z M830.5,866.9c0,0.5-0.3,1.5-0.6,1.9c-0.1,0.2-1.3,1.2-1.3,0.9c-0.1-1.6-0.1-3.4,0-5
	c0.4,0.1,0.9,0.1,1.2,0.4c0,0,0,0,0.1,0.1c0.2,0.3,0.2,0.7,0.4,1s0.6,0.4,0.9,0.6C831,866.8,830.7,866.8,830.5,866.9z M825.5,750.6
	c0.3-2,0.8-3.5,0.7-5.7c-0.1-2-0.5-4.2,0.1-6c1.6-0.2,0.8-2.5,1.4-3.6c2.1-4.1,3.2,0.9,3.3,2.8c0.1,1,0.4,0.3-0.4,1.5
	c-0.3,0.5-1.7,0.5-1.6,1.4s1.6,0.6,1.9,1.2c0.3,0.5,0.1,2,0.1,2.5c-0.1,1.7,0.2,3.2,0.2,4.8c-0.4,0.1-1.2,0.1-1.7,0
	c0.1-0.6-0.2-1.3-0.1-1.9c-0.5-0.1-1.4-0.1-1.9,0c-0.3,1.6,1.8,4.1,0.7,5.7c-0.4,0.6-2,1-2.8,0.2
	C824.9,752.7,825.4,751.3,825.5,750.6z M825.1,756.2c0.6-0.7,3.8-1.2,4.6-0.6c1.3,1,0.1,3.7,0.5,5.2c0.3,0.9,1,1.2,1,2.3
	c0,0.5-0.9,1-0.7,2c-0.5-0.1-1.2,0.2-1.7,0.1c-0.2,1.6,0.5,2.9,0.5,4.5c-1.5,0.1-3,0.1-4.5,0c0.1-1.8-0.9-3.3-0.9-5
	c0.1-1.5,1-2.5,1.4-3.8C825.6,759.4,824.7,756.7,825.1,756.2z M829,775c-0.2,0.1-1.6,0.2-1.6,0c-0.1-0.4-0.2-1.7,0-2.7
	c0.2-0.9,0.6-1.5,1.7-0.9C829.7,771.7,829.8,774.8,829,775z M821.9,783.2c1,1.5,1.9-0.3,1-1.4c0.7-1.1,0.2-2.5,0.4-3.8
	c0.2-1.2,1-2.3,0.9-3.6c0.8,0.1,1.1,0.9,1.3,1.6c-0.1-0.2-0.1-0.4-0.1-0.6l0.4,1.4c0-0.1-0.1-0.3-0.1-0.4c0.4,1.4,0.8,2.6,0.8,4
	c0,1.5-1.2,4-0.2,5.2c1-0.9,1.4-2.4,3.1-2.2c0,1.6-0.5,3-0.5,4.6s0.6,3.4,0.3,4.8c-0.8,0.2-1.5,0.8-2.3,0.8
	c-1.5,0.1-0.8,0.3-1.6-0.8c-0.3-0.5-0.1-1-0.3-1.6c-0.3-0.7-1.3-1.1-1.6-1.7c-0.4-0.9,0.3-1.8-0.8-2.3c-0.1-0.8,0-1.6-0.1-2.4
	c-0.5,0.1-0.8-0.3-1.1-0.2C821.3,784,821.4,783.6,821.9,783.2z M819.4,817.9c0.3,0,0.7-0.1,1-0.1c0.1-0.3,0-0.5,0.1-0.8
	c1.6-0.5,1.4-2.3,2.2-3.3c1.8,2.1,1.2,5.8,0.9,8.3c-0.2,1.2,0.1,0.7-1.4,1.4c-0.8,0.4-1.3,0.4-1.8,1.2
	C817.5,825.4,819.3,819.4,819.4,817.9z M810.1,797.6h0.7c0.4,0.6,0.5,1.3,0.3,2c-0.5,0.2-1.2,0.2-1.6,0
	C809.2,798.7,809.5,798.1,810.1,797.6z M804.6,788.9v0.4c-0.3,0.5,0,1-1,0.6c-0.1-0.7-0.2-1.7,0-2.3
	C804.1,787.8,804.4,788.4,804.6,788.9z"/>
<path class="st2" d="M851.4,344.6C851.4,344.6,851.5,344.6,851.4,344.6C851.5,344.6,851.5,344.6,851.4,344.6
	C851.5,344.6,851.4,344.6,851.4,344.6z"/>
<path class="st0" d="M856.5,352.6c0.1-0.1,0.3-0.1,0.4-0.2c-0.1-0.7-0.4-1.3-1-1.7C856.1,351.3,856.3,352,856.5,352.6z"/>
<path class="st0" d="M855.5,350.3c-0.6-0.4-1-0.7-1.4-0.9C854.4,350,854.8,350.3,855.5,350.3z"/>
<path class="st1" d="M844.6,701.1c0.3-0.1,0.9-0.2,1.2-0.4c0.2-0.7-0.3-0.6-0.7-1l-1-1C843.7,699.6,843.8,700.4,844.6,701.1z"/>
<path class="st0" d="M690.4,504.4c-0.1,0-0.1,7.8-0.2,8.4c0.7,0.1,1.6-0.3,2-0.9c0.9-1.2,0.7-2.4,0.9-3.9c0.1-0.9,0.8-2.3,0.5-3.2
	C693,503,691.8,504.3,690.4,504.4z"/>
<path class="st0" d="M700.6,493.9c0.4,1.6-0.3,2.9-0.5,4.5c0.2-0.7,1.4-0.5,2-0.5c1.4,0,1.5-0.9,1.2-2.1c-0.1-0.3-0.1-0.5-0.2-0.6
	c-0.3-0.6-0.9-0.7-1.5-1.1c-0.7-0.6-0.9-1.3-2-1.4c-0.1,0.4-0.1,0.8,0,1.1C700,493.8,700.3,493.9,700.6,493.9z"/>
<path class="st0" d="M700.6,502.5c0.1-0.1,0.1-0.3,0.1-0.4c0.1-0.7,0.1-1.6-0.9-1.4c-0.7,0.2-0.8,1.2-0.6,1.8
	C699.7,503.7,699.9,502.8,700.6,502.5z"/>
<path class="st0" d="M696.1,500.1c-0.3,0.3-0.5,0.6-0.8,0.9c-0.5,0.1-1.1-0.1-1.4,0.3c1.3,0.4,2.3,0.7,3.7,0.8c0.2,0.7,0.8,0.4,1,0
	s0.2-1.2,0.2-1.7c0.1-0.8,0.2-1.1,0.2-2c-0.6,0-1.6-0.8-2-0.7C696.1,497.9,696.5,499.6,696.1,500.1z"/>
<path class="st0" d="M693.3,503.2c0.1-0.1,0.1-0.3,0.1-0.4c0.1-0.8-0.1-1.7-1-1.3c-0.2,0.1-0.3,0.7-0.6,0.8
	c-0.4,0.2-0.9,0.2-1.2,0.2c-0.2,0.4-0.3,0.7-0.2,1.1C690.7,503.8,693.2,504,693.3,503.2z"/>
<path class="st0" d="M692.2,500.8c0.2-0.8,1.6-0.3,2.3-0.7c0.8-0.4,0.7-0.9,0.9-1.4c0.1-0.1,1.3-1.7,0.7-1.8
	c-0.7-0.1-2.7,0.1-3.3,0.5c-0.9,0.5-0.2,2-1,2.4c-0.1,0.3-0.1,0.7,0,0.9C691.8,500.8,692.1,500.8,692.2,500.8z"/>
<path class="st0" d="M699.3,498.9c-0.3,1.1,0.7,0.6,1.1,1c0.3,0.2,0.2,0.7,0.5,1c0.1,0.1,0.8,0.4,0.9,0.5c0.7,0.2,1.2,0.2,1.7-0.4
	c0.1-0.2,0.2-0.6,0.2-1c0.1-0.5,0.1-0.9,0.1-0.9C703.2,497.7,700.4,498.8,699.3,498.9z"/>
<path class="st0" d="M683,508.1c-0.1,0.1-0.2,0.1-0.3,0.2c0.1-0.2,0.1-0.3,0.2-0.4l-0.4,0.5c0.1-0.1,0.2-0.1,0.2-0.1
	c-0.6,1.2-1.8,4.2,0.7,3.7c0.2-0.9-0.6-1-0.6-1.8C682.5,509.4,682.7,508.7,683,508.1z"/>
<path class="st0" d="M698.2,503.9c-0.6-0.1-1.8,0.2-2.2-0.2c-0.2,0.5-0.9,5.3-0.5,5.4c-0.4-0.1-0.8,0-0.9,0.4
	c1.4,0.1,1.9-0.2,1.9,1.4c0,1-0.2,2-0.1,3c1.2-0.2,0.9-1.2,1.1-2.1c0.3-1,0.7-1.1,1.7-1.2c0.2,0-0.1-3.5-0.2-3.8
	C699.1,505.7,698.6,504.9,698.2,503.9z"/>
<path class="st0" d="M678.8,507c-0.1,1.1,0.3,2.3-0.2,3.4c0,0-1.6,2-1.1,2s1-0.1,1.5-0.2c-0.1-0.7,0.1-1.6,0.3-2.2
	C679.5,509.3,681.6,505.8,678.8,507z"/>
<path class="st0" d="M688.1,506.9l0.4-0.2c-2.7,0.1-1.9,5.4-0.5,5.3C688.2,510.9,689.1,507.1,688.1,506.9z"/>
<path class="st0" d="M703.7,507.7c-0.8-1.2-0.2-3.5-1.5-4.4c-0.5-0.4-1.4-0.7-2-0.4c-0.9,0.5-0.6,1.2-0.5,2c0.9,0,0.4,1.5,0.6,2.1
	c0.5,1,1,0.7,1.2,2c0.1,0.7-0.1,1.9,0.6,2.2c0.4,0.2,2,0.2,2.4,0.1c0.1-1,0.8-1.8,0.3-2.7C704.5,508.3,703.9,508.1,703.7,507.7z"/>
<path class="st0" d="M697.4,496.8c0.5,0.5,0.4,1.2,1.2,1c0.2-0.6,0.6-0.6,1.1-0.7c0-0.6,0.1-1.1,0.2-1.7c0.1-0.1,0.1-0.1,0-0.1
	c0.1-0.4,0.4-0.6,0.3-1c0,0.1-1.4-1.1-1.1-1.1c-1-0.1-0.9,1.3-1.4,1.7c-0.7,0.5-2.3-0.2-1.9,1.6C696.3,496.5,697,496.4,697.4,496.8z
	"/>
<path class="st0" d="M695.3,503.6c0.1-0.1,0.1-0.1,0.2-0.1c0.5-0.2,0.8-0.2,1.5-0.2c0-0.1,0.1-0.6,0-0.6c-0.6-0.1-1.1-0.1-1.6-0.3
	c-0.4-0.2-0.3-0.5-0.8-0.4c-0.9,0.2-1,2.2-0.1,2.3C694.8,504.4,695.1,503.8,695.3,503.6z"/>
<path class="st2" d="M863.8,346.2c0.7-0.1,0.7-0.1,1.4-0.4c0.4-0.2,0.7-0.3,1-0.6c1.6-1.3,1.9-3.9,4.1-4.1c1.6-0.2,1.7-0.7,2.2-2.1
	c0.6-1.7,2.4-4.4,4.1-5.5c0.5-0.3,1.2-0.5,1.8-0.7c0.7-0.4,1.7-0.7,2.4-0.8c0.4-0.1,1,0.1,1.5-0.1s0.9-0.6,1.4-0.8
	c0.8-0.3,2-0.3,2.9-0.7c0.9-0.5,0.6-1.5,1.2-2.2c0.1,0.5,0.7,1,1.2,1.1c1,0.2,0.5-0.3,1.2-0.7c0.6-0.5,1.9-0.4,2.5-0.1
	c0.3,0.2,0.5,0.6,0.8,0.8c0.4,0.3,0.9,0.3,1.2,0.6c0.6,0.7,0.3,1.8,0.4,2.6c1.5,0.1,2.6,0.7,4,1.4c0.5,0.3,1.6,1.1,2.1,0.9
	c0.6-0.2,0.6-1.1,1.3-1.4c-0.1-1.1-1.6-2.4-2.2-3.2c-0.4-0.5-0.7-0.8-1.1-1.4c-0.1-0.2-1.2-1-1.2-1c-0.1-0.5-0.7-0.6-0.9-1
	c-0.2-0.3-0.2-0.7-0.5-1c-0.2-0.2-1-0.2-1.1-0.4c-0.4-0.9-2.1-6.3-0.1-6.2c0.3-0.6,0.9-1.9,1.7-1.9c0.7-1.5,3.8-2.9,3.4-5
	c0.8-0.5,1.2-1,2.3-1c0.8-0.1,1.7,0.2,2.6,0.1c0.1-1.1-0.3-2.8,0.2-3.7c0.2,0,0.3-0.1,0.4-0.1c0-1.1-1.2-1-1.7-1.9
	c-0.2-0.5,0-1.6,0-2.1c0-1.1-0.1-1.3-1.1-1.9c-0.7-0.4-1.3-0.6-1.4-1.5c-0.5-0.2-0.9-0.4-1.3-0.7c-0.3-0.3-0.6-1-1-1.1
	c-0.7-0.3-2.5-0.1-3.1,0.1c-0.9,0.3-1.3,1.1-2.2,1.1c-0.7-0.1-1-0.9-1.7-1c-0.4-0.1-0.7,0.1-1.1,0.2c-1.4,0.4-1.8,0.7-3.2-0.1
	c-0.8-0.4-2.1-1.6-3-1.7c-1-0.2-2.2,0.5-3.1,1c-0.6,0.3-1.8,0.9-2.3,1.4c-0.6,0.6-0.2,1.1-0.5,2c-0.5-0.1-1-0.3-1.6-0.4
	s-1.2,0-1.9-0.2c-0.4-1.7,1.9-1.7,1.7-3c-0.9-0.1-0.5-2.3-0.2-2.9c0.8,0,1.2-0.7,1.6-1.2c0.9-0.9,0.3-0.5,0.3-1.7
	c0-1.7,1.9-1.7,2.6-2.7c0.2-0.2,0.1-0.7,0.3-0.9s0.7,0.1,0.8-0.5c0.1-0.6-2-1.6-2.5-2.1c-0.7-0.8-1.5-1.9-1.8-2.7
	c-0.3-0.8-0.1-1.6-0.5-2.3c-2.4-0.1-5.2,1.1-5.2,3.6c0,0.7,0.2,1.5-0.5,1.8c-0.6,0.3-1-0.1-1.2-0.6c-0.4-1,0.6-1.9,0.1-3.1
	c-0.7-0.1-1.5-0.3-2.2-0.3c0.1-0.6,0.6-0.9,0.8-1.5c0.3,0.1,0.6-0.1,0.9-0.1c0-0.5,1.6-3,2-3.2c0.6-0.3,1.4,0.4,1.7-0.4
	c0.2-0.5-0.3-1.1-0.3-1.7c-0.8-0.4-1.5,0-2.2,0.2c-1.2,0.2-1.8-0.6-2.3-1.7c-0.3-0.5-0.2-0.4-0.6-0.8c-0.5-0.5-1.1-0.6-1.6-1.1
	c-0.6-0.6-0.3-1.8-1.4-2c0.1,1.1-0.4,0.7-0.9,1.2c-0.4,0.4-0.2,0.6-0.4,0.9c-0.4,0.5-0.8,0.5-1.2,0.7c-1.2,0.9-2.6,1.7-3.9,2.4
	c-1.4,0.8-2.9,1.6-4,2.6c-0.5,0.5-1.7,1-1.7,1.7c0,0.3,0.6,0.5,0.6,0.9c0.1,0.3,0,0.6,0,0.9c-0.5,0.1-0.9,0-1.4,0.1
	c0.5,0.8,0.4,2-0.3,2.7c-0.6,0.6-1.7,0.6-2.5,0.7c-1.4,0.2-2.5-0.7-3.7-1.4c-1-0.6-2-0.8-3.2-0.9s-2.1,0.2-3.3,0.4
	c-1.7,0.2-2.4,0.1-4-1c-1.7-1.2-3.5-2.9-5.7-2.8c-0.1,1.5-0.1,2.3-1.5,2.9c-1.1,0.5-2.3,0.4-3.5,0.9c-1.4,0.6-1.8,1.8-2.9,2.8
	c-0.8,0.7-1.7,1.4-2,2.4c-0.2,0.4-0.7,2.7-1.2,2.7c-0.4,0-2.1-0.2-2.3,0.1c-0.5,0.5,0.9,1.3,0.7,2c-0.2,0.6-2.6,1.7-3.2,1.8
	c0.2,1.1-1.5,1.9-2.2,2.4c-0.6,0.4-0.9,0.6-1.4,1.1c-0.5,0.6-0.9,1.3-1.7,1.6c-0.8,0.3-1.8-0.1-2.6,0.1c-0.6,0.1-1,0.4-1.6,0.6
	c-1.1,0.5-2.4,1-3.5,1.5s-2.3,0.1-3.4,0.4s-0.7,1.8-0.7,2.9c0,1.3-0.1,2.2-0.7,3.3c-0.3,0.5-0.5,1.1-0.8,1.5s-0.7,0.5-1,0.8
	c-0.5,0.5-0.5,0.9-0.9,1.3s-1.2,0.5-1.6,0.9c-0.5,0.5-0.5,1-1.1,1.5c-0.4,0.3-0.9,0.5-1.3,0.8c-0.8,0.5-2.6,0.8-3.1,1.6
	c-0.3,0.5-0.1,1-0.5,1.6c-0.5,0.6-1.5,0.8-1.1,1.8c0.5,0.3,1.4,0.5,1.8,1c1.8,2.7-5,3.3-4.7,5.6c-1,0.7-2.6-0.2-3.6,0.5
	c-1.1,0.7-1.4,1.6-2-0.2c-0.5-0.2-1-0.2-1.6-0.1c0.1,0,0.2,0.1,0.3,0.1c0,0.4,0,0.8,0,1.2c-1.2,0.1-2,0-3.1,0.6
	c-0.6,0.3-1,0.4-1.5,0.9c-0.4,0.5-0.5,1.1-0.9,1.5s-1,0.2-1.5,0.1c-1.2-0.3-2.5-0.6-3.9-0.6c-1.4-0.1-2.7-0.1-4.1,0
	c-0.1,1,0.3,3.1-1.2,3.3c0.1,0.6,0.8,1.2,1,1.9c0.2,0.6,0.2,1.5,0.5,2c0.5,0.7,1.5,0.8,2.1,1.1c1.2,0.6,0.9,0.9,1.5,1.9
	c0.7-1.2,1.3-0.9,2.7-1c1.2-0.1,1.6-0.5,2.5-1c1.2-0.7,1.2,0.2,1.9,1c0.4,0.6,1,1.3,1.6,1.9c0.3,0.4,1,1,0.8,1.6
	c-0.2,0.3-0.9,0.3-1,0.7c-0.2,0.4,0.1,0.9-0.1,1.3c-0.3,0.5-0.9,0.4-1.2,0.8c-0.1,0.1-0.2,0.4-0.2,0.7h91.1
	C863.2,346.4,863.5,346.2,863.8,346.2z M851.4,344.6C851.4,344.6,851.5,344.6,851.4,344.6C851.5,344.6,851.5,344.6,851.4,344.6
	C851.5,344.6,851.4,344.6,851.4,344.6z"/>
<path class="st2" d="M532.6,346.2c-0.1-1,0.2-2.1,0-3.1c-0.2-1.1-0.9-1.9-1.2-2.9c-2.2-0.5-4.4,1.1-6.4,0.8c-1.3-0.2-1.4-1.1-2.3-2
	c-0.8-0.8-1.6-0.8-2.5-1.2c-1.7-0.7-3.4-1.8-5.2-2.5c-1.3-0.6-1.3-0.9-2.4-0.3c-0.7,0.4-1.3,1.6-2.3,1.3c-0.5-1.2-2.2-2-3.3-2.3
	c-1.2-0.4-2.2-0.8-3.4-1.4c0.1-0.3-0.1-0.7-0.1-1c-1.4-0.7-2.5-1.2-3.7-2.2c-1.3-0.9-1.8-2.3-3.5-1.7c0,0.1-0.1,0.2-0.1,0.3
	c-1.2,0.3-0.9-2.5-1.1-3.4c-0.4-1.3-1.1-2.5-2.3-3c-0.8-0.3-1.2-0.1-2-0.5c-0.6-0.3-1.1-0.7-1.8-1c-0.5-0.3-1.5-1.1-1.9-1.2
	c-0.6-0.2-1.5,0-2.2-0.1c0.1-0.3-0.1-0.8-0.1-1.1c-2.7-0.1-4-1.5-5.9-3.2c-0.9-0.8-1.3-2.1-2.4-2.1c-1.7-0.1-1.1,1.8-1.2,3.1
	c-1.2,0.2-1.5-1.6-2.4-2c-1.3-0.5-2,0.3-3.1-0.9c-0.5-0.5-0.6-1.2-1-1.8c-0.7-0.9-2.3-0.9-2.8-1.9c-0.5-1.1,0.6-2.4,1.4-3.2
	c1.2-1.4,2.2-3,3.1-4.7c0.7-1.2,1-3.1,1.9-4c0-0.4,0.1-0.5,0.2-0.8c0.5-0.1,1.1,0,1.7-0.1c0.2-0.7,0.1-1.3-0.6-1.4
	c-0.5-1.4-1.4-3.1-0.9-4.6c0.8-0.4,0.5-1.6,0.9-2.3c0.7-1.1,1.5-0.4,2.2-1.2c1.2-1.4-0.5-4.2,0.1-5.7c0.3-1.1,1.5-1.1,2.3-1.4
	c1.1-0.5,1.5-1.1,1.9-2.2c0.3-0.7,0.3-2,1-2.5s2-0.4,2.8-0.5c0.4-1.2,2-2.6,2.6-3.8c0.6-1.2,0.9-1.4,2.5-1.1s-0.2-2.3-0.3-2.3
	c-0.7-0.9-1-1.5-2.2-1.7c-1.7-0.3-2.1,0.2-3.1-1.6c-0.7-1.1-0.6-2.3-1.9-2.8c-0.6-0.2-1.1,0-1.8-0.3c-1-0.5-1.4-1.2-2.4-1.6
	c-1.1-0.4-2.4-0.6-3.6-0.7c-1-0.1-2.8,0.2-3.4-0.7c-0.8-1.1-1.1-3.4-0.7-4.8c-1,0-1.5-0.8-1.9-1.5c-0.3-0.4-0.1-0.6-0.4-1
	c-0.3-0.4-1-0.7-1.5-0.8c-0.8-0.2-1.5,0.1-2.3-0.2c-0.8-0.3-3-2.6-3-3.6c-1.1-0.3-1.8-1.2-3.1-0.9c-0.9,0.2-1.6,1.1-2.5,1.2
	c0,0.1-0.1,0.2-0.1,0.3c-2.4,0.6-3.2-2.2-4.4-3.4c-0.8-0.7-2-0.6-2.6-1.6c-0.5-0.9-0.1-1.7-0.8-2.3c-2.2-0.4-1.1-2.5-1.7-4.4
	c-0.6,0.2-1.4-0.2-2-0.1c1.2-0.3-1.8-3.6-2.7-3.8c-0.1,0.5,0.2,1.5-0.1,1.9c-0.4,0.5-1,0.1-1.4,0.3c-1.1,0.7-0.2,1.5-0.8,2.5
	s-1.8,1.1-2.3,0.3c-0.6-0.9-0.4-2.4-0.5-3.4c-0.3,0.3-0.7,0.3-1,0.5c-0.4,0.3-1-3.1-0.9-3.4c0.2-0.9,0.9-1.1,1.2-1.9
	c0.4-0.9,0.3-2.8,0.2-3.8c-0.3-2.9-2.5-4.9-3-7.7c-0.1-0.5,0.1-1.2-0.2-1.7c-0.5-0.6-0.8-0.2-1.4-0.6c-0.8-0.7-0.6-1.7-0.6-2.7
	c0.1-0.6,0.3-1.2-0.1-1.8c-0.5-0.7-1.8-0.6-2.1-1.6c-0.3-0.9,0.7-1.1,1-1.7c0.3-0.6,0.2-1.5,0.2-2.1c-0.2-1.1-0.6-2.1-1.4-2.8
	c-0.3-0.2-1.4-0.4-1.5-0.8c-0.2-0.7,0.9-1,1.6-1.1c0.5-2.1,3.5-2.1,5.2-2.6c0.1-0.7,0.8-1,1.1-1.7c0.2-0.1,0.4-0.1,0.6,0
	c0.1,2-0.6,3.6-0.5,5.5c0.5,0.1,1,0.3,1.5,0.4c0,0.6,0,1.2,0.1,1.8c1.2,0.1,1.8,0.9,2.5,1.7c0.1,0.1,2.1,2.1,2.1,1.3
	c-0.1-1.5,0.7-1.5,1.5-2.1c0.2-0.2,0.5,0.1,0.7-0.1c0.2-0.2,0-0.5,0.2-0.7c0.3-0.4,0.3-0.8,0.8-1c0.2-0.1,2.1-0.3,2.1-0.3
	c-0.1-1.4,1.1-2.8,2.2-3.4c0.1,0.8,1,1.6,1.8,1.4c0.9-0.2,0.8-0.9,1.2-1.8c0.5-0.9,0.6-1,1.6-1.5c0.8-0.4,1.5-0.9,2.2-1.1
	c-0.9-1-0.4-2.2-1.1-3.3c-0.4-0.5-0.9-0.9-1.3-1.4c-0.4-0.5-0.6-1.2-0.9-1.7c-0.7-1.1-2.1-2.1-2.4-3.5c-0.4-1.8,0.5-2.8,1.2-4
	c2.3-3.6-3.2-3.1-5.2-3.3c-1-0.1-2-0.6-3-1.4c-1.2-1-2.2-2.4-2.4-3.7c-0.3-1.6,0.4-3.4-0.4-4.8c-0.1-0.2,3.6-0.4,3.7-0.4
	c0.4-1.1,0-1.1-0.4-1.9c-1.4-2.6-1.7-5.7-2.9-8.3c-0.1-0.2-0.1-0.3-0.2-0.4c0.5-0.4,1.6-1.5,2.3-1.6c0.8-0.1,1.1,0.4,1.7,0.5
	c0.5,0.1,1.1-0.1,1.7,0c1.1,0.3,1.8,0.9,3.3,0.7c1.2-0.2,2.1-0.3,3.3-0.2c-0.1-0.3-0.5-1.4-0.5-1.6c0.2-0.9,0.7-0.6,1.4-1
	c1.2-0.8,2-1.8,1.9-3.2c0-0.5-0.4-0.9-0.3-1.6c0.1-0.8,0.6-1.2,0.5-2.1c-0.1-0.7-0.8-2-1.4-2.6c1.3-0.3,2.3-0.6,3.8-0.6
	c0.6,0,2,0.3,2.4-0.2c0.5-0.5,0.1-1.7,0.2-2.3c0.3-1.2,1.9-2.3,3-2.9c1.4-0.8,2.8-0.5,4.3-0.6c0.1-1.8-0.1-3,0.9-4.4
	c0.5-0.7,0.7-1,1-1.8s0.3-1.8,1-2.1c0.1-1.8-0.7-5.4,1.6-5.9c1.1-1.9-0.3-4.4,0.6-6.2c0.5-1.1,1.7-1,0.9-2.7
	c-0.4-0.8-1.1-1.2-1.3-2.2c-0.4-0.2-0.6-0.4-1-0.6c-0.5-0.2-1.1,0-1.6-0.2c-0.9-0.5-1.5-1.8-2-2.6c-1.3-1.9-2.2-2.6-4.6-1.9
	c-2.4,0.7-3.7-0.3-5.9-0.9c-1.6-0.5-4.2-2-5.8-2c0.1-1.1-0.3-1.8-1.4-2.1c-1.3-0.4-1.9,0.8-3,0.7c-0.5,0.9-0.3,2.1-1.3,2.6
	c-0.9,0.4-2.7,0-3.5-0.1c-2-0.3-5-1-7.1-0.4c-1.1,0.3-2,1.4-3.3,1.7c-1.4,0.4-2.3,0.6-3.5,1.4c-0.6,0.4-1,0.8-1.7,0.9
	c-0.6,0.2-1.2-0.2-1.8,0c-0.5,0.2-0.8,0.9-1.2,1.2c-0.5,0.3-1.1,0.2-1.7,0.4c0.1,0.4-0.2,0.7-0.2,1.1c-1.5,0.1-3.3-0.4-4.7-0.1
	c-1.5,0.3-1,1.1-1.8,2.1c-0.4,0.4-0.6,0.6-0.9,0.6c-0.4,0-0.8-0.3-1.5-0.5c-1.2-0.5-1.2-0.2-2.4,0.3c-0.9,0.3-2,0.1-3,0.1
	c-0.9,0-1.8,0-2.8,0c-0.8,0-2.4,0.7-3,0.5c-0.2-0.1-0.4-0.2-0.5-0.3c-0.8-1,3.2-2.8,3.9-3c0.2-0.8,0-1.2-0.5-1.8
	c-0.2-0.3-0.7-0.1-0.9-0.3s-0.2-0.7-0.4-0.9c-1.2-1.1-2.1-0.8-3.7-1c-0.5-0.1-1.4-0.3-1.7-0.6c-0.5-0.4-0.6-1.2-1-1.6
	c-0.9-0.7-2.9-0.3-4.1-0.3c-2,0-2.6,0.1-4-1.4c-1.6-1.7-1-3.2-1.4-5.2c-0.2-1.1-0.8-2.3-1.6-3.1c-1.1-1.1-1.9-0.7-3.3-0.9
	c-2.3-0.4-2.4-2.1-3.4-3.6c-1.2-1.9-3.4-0.3-5.1-1.2c-0.8-0.4-1.1-1.4-1.7-2c-0.6-0.6-1.6-0.7-2.1-1.4c-0.7-0.7-1.4-2.2-1.8-3.2
	c-0.5-1.2-0.8-2.4-1.5-3.5c-1.4-2-3.8-4.3-6.6-3.1c-0.8,0.3-0.5,0.9-1.2,1.2c-0.8,0.3-1.5-0.3-1.7-0.9c-0.4-1,0-3.2,0-4.3
	c0.1-2-0.9-1.9-2.8-1.9c-1.6-0.1-2.8,0.1-4.1-0.5c-0.2-0.1-0.3-0.4-0.6-0.5s-0.9,0-1.2,0c-0.7,0-1.5-0.1-2.2,0.2
	c-1.7,0.6-3,1.7-3.7-0.7c-0.8-0.1-0.8-0.8-1.4-1c-0.6-0.3-1.8-0.1-2.4,0.2c-0.9,0.4-0.8,1.4-1.6,1.7c-0.8,0.4-1.3-0.4-1.9-0.5
	c-1.8-0.3-2.7,0.6-4.2,1c-1.6,0.5-2.6,0.9-4.3,1c-0.1,0.5-0.2,1-0.2,1.5c-2.3,0.2-3.5-0.5-5.7-1c-1.4-0.4-4.9-1.2-6.1-0.5
	c1.6,0.9,3.3-0.4,3.9,2.2c0.5,0.2,0.8,0.4,1.4,0.6c0.1,0.5,0.1,1,0,1.5c-0.7,0.4-1.4,0.4-2.2,0.4c-1,0-1.7,0.4-2.6,0.5
	c-2,0.4-3.1-0.6-4.8-1s-3.3,0.1-5,0.2c-0.7,0-2-0.3-2.6,0s-1.1,1.4-1.7,1.7c0.1,1.4-0.4,1.9-1.7,1.9c-0.3,1-0.5,2-0.7,3.1
	c-0.9,0.1-1.8,0-2.7,0.1c0.2,3.1-4.2,2.6-4.4,5.5c-0.2,0.2-0.2,0.2-0.4,0.4c-1.3,0.3-2.1-1.3-3.1,0.2c-0.4,0.6-0.1,1.3-0.3,1.9
	s-1,1.4-1,1.6c-0.1,0.6,0.3,0.6,0.6,1.2c0.3,1,0.2,1.8-0.1,2.8c-0.1,0.5-0.8,0.6-0.3,1.2c0.2,0.2,1.4,0.1,1.7,0.1
	c-0.3,1.5,2,0.9,2,2.6c1.1,0.1,1.2-1.6,2.7-1.1c0,0.1,0.1,0.2,0.1,0.3c1.2,0.3,2-0.9,3.3-0.5c0.3,0.1,0.2,0.6,0.5,0.7s0.6-0.1,0.9,0
	c0.6,0.1,1.2,0,1.7,0.1c0.1,0.9,0.9,1.6,1.2,2.2s0.1,1.5,0.4,2.2c0.5,1.2,1,0.4,1.8,1s0.3,1.8,1.7,1.5c0.4,1,1.6,0.4,2.4,0.8
	c0.6,0.3,0.8,1,1.4,1.4c0.5,0.4,1,0.5,1.6,0.6c2,0.4,4.1-0.5,5.9,0.7c0.1,0.4,0.1,0.9,0,1.3c-0.5,0.1-0.7,0.5-0.7,1
	c-1.9,0.1-2.3,4.5-0.7,5.2c0.5,0.2,1.1-0.1,1.6,0.1c0.8,0.3,0.6,0.9,1.2,1.3c0.9,0.6,2.1,0.7,2.6,1.9c1.1,0.1,2.4-0.4,2.9,0.7
	c0.5,1-0.3,2.3-0.7,3.1c-0.3,0.5-0.6,0.8-0.7,1.4c-0.1,0.6,0.3,1.3-0.1,1.8c-0.3,0.3-1.1,0.3-1.5,0.7c-0.3,0.3-0.5,1-0.7,1.4
	c-0.7,0.1-1.5,0-2.2,0.1c-0.4,0.1-0.8,0-1.2,0.2s-0.7,0.6-0.9,0.7c-0.5,0.2-1.9,0.1-2.3,0.5c-0.4,0.5-0.1,1.8-0.1,2.4
	c-0.1,1-0.3,1.4-0.7,2.3c-0.7,1.3-0.3,1-1.4,1c-0.9-0.1-3.8-0.6-4.5,0.2c-0.4,0.4-0.3,1.6-0.4,2.1c-0.1,0.9-1,3.1-0.2,3.5
	c0.1,1.6,0.1,3.1,0.6,4.5c0.2,0,0.3,0,0.5,0.1c0.2,2.7,0.1,5.2,0.9,7.6c0.4,1.1,0.9,2.3,0.7,3.5c-0.1,0.5-0.5,0.8-0.4,1.5
	c0,0.3,0.5,0.3,0.5,0.7c0.1,0.3,0,0.7,0,1c0,1.3-0.8,2.4-0.7,3.6c0.1,0.4,0.5,1.2,0.6,1.6c0.3,0.8,0.3,1.6,0.3,2.5
	c0,0.6,0.2,1.4,0,1.9c-0.1,0.6-1,1.1-1,1.6c0,0.9,0.5,0.7,0.7,1.4c0.2,0.6,0,1.4,0.1,2c0.1,0,0.2,0.1,0.3,0.1
	c0.1,1.1-0.2,1.9-0.3,2.9c1.8,0.1,3.5,0.4,3.3,2.6c1.7,0.1,7,0,7.7,2.4c0.8,0.1,1,1.1,1.7,1.6c0.7,0.4,1.7-0.1,2.3,0.3
	c1.4,0.8,0.4,4.1,3.1,3.4c0-0.3,0.2-0.4,0.2-0.6c1.4-0.1,2.5,0.4,3.6,0.7c0.5,0.1,1.1,0.2,1.7,0.1c0.1-0.5,0-1.1,0.1-1.7
	c0.6-0.4,1.1-0.6,1.9-0.5c0.2,1.5-0.9,2.6-0.6,4c0.1,0,0.2,0.1,0.3,0.1c0.1,1,0.3,1.6-0.2,2.6c-0.2,0.4-1.8,1.4-0.3,1.8
	c0,0.7-0.1,1.4,0.4,1.9c0.9-1.4,3.6-1,5.2-0.9c0,0.6,0.3,1.1,0.6,1.7c0.2,0.1,0.4,0.1,0.6,0.1c0,0.1,0.1,0.2,0.1,0.3
	c0.4,0.1,1,0.1,1.4,0c-0.1-0.6,0.3-0.9,0.8-0.9c0-0.1,0.1-0.2,0.1-0.3c0.5-0.1,1-0.1,1.5,0c0.1,0.9,1,1.2,0.9,2.2
	c0.7,0.1,1.6-0.2,2.2,0c0.8,0.3,2.6,1.7,2.8,2.6c0,0,0,0,0,0.1c0.2,1.4-0.6,3.3-0.6,4.7c0,1-0.2,1.2-0.9,1.8
	c-0.5,0.5-1.2,0.7-1.4,1.5c-1.9,0.1-3.8,0.2-5.7,0.2c-0.8,0-2.2-0.3-3,0.3c-0.6,0.5-0.5,1.6-1.5,1.7c0.1,2.2-1.8,1.4-3.4,1.9
	c-0.8,0.3-1.3,0.9-1.9,1.7c-0.6,0.8-0.5,0.9-0.8,1.9c-0.5,1.3-1,0.1-1.7,0.8c-0.7,0.6,0.8,2.6,1.1,3.1c0.7,1.2,1.1,2.4,1,3.7
	c-0.4,0.2-0.7,0.4-1,0.6c1.6-0.1,1.9,0.2,1.8,1.8c-0.1,0.4-1,0.6-1.2,0.8c-0.5,0.4-1.1,1.1-1.4,1.7c-0.3,0.6-1.7,5.9-0.2,6
	c0,0.2,0.1,0.3,0.1,0.5c0.4,0,0.8,0,1.2,0c-0.1-0.2,0.1-0.5,0.1-0.7c0.6-0.3,1.5-0.3,2,0c0,0.4,0.2,1.1-0.1,1.4
	c-0.4,0.3-1-0.1-1.5,0.1c-0.7,0.3-0.4,0.5-0.8,0.9c-0.5,0.6-0.5,0.4-1.1,0.7c-0.6,0.3-0.5,0.2-0.9,0.8c-0.3,0.4-0.4,0.7-0.7,1
	c-0.8,0.8-1.5,1.6-2.2,2.5c-0.8,0.9-1.5,0.8-2.5,1.3c-1.4,0.6-0.7,1.2-1.1,2.3c-0.4,0.9-1.4,0.9-2,1.7c-0.8,1-0.8,1.2-2.2,1.3
	c-0.1,0.6,0,1.1-0.1,1.7c-0.9,0.2-1.1,1.6-2,1.7c0,0.1-0.1,0.2-0.1,0.2c-0.9,0.1-3.1-0.3-2.8,1.3c0.7-0.1,1.2,0.4,1,1
	c0,0.1-1.6,0.4-1.8,0.6c-1.1,1,0,1.9,1,2.3c0.1,1.6-0.1,2.9-0.4,4.4c-0.2,1.2,0,1.3-1.1,1.9c-0.2,0.1-0.5,0.2-0.7,0.4
	c-0.7,0.4-1.3,0.8-1.7,1.5c-0.8,1.2-0.9,2.5-2.5,2.6c-1.4,0.1-2.8-0.4-4.2-0.4c-2.1,0-3.1,0.7-4.9,1.6c-0.2,3-1.1,5.6-2.1,8.5
	c-0.6,1.6-0.9,3.2-1.5,4.7c-0.6,1.6-1.4,3.1-2.5,4.1c-3.1,2.7-3.5,6.6-7,9.2c-2.6,1.9-5.7,2.5-8.4,4.6c-1.4,1-2.5,0.8-4.1,1.4
	c-2.7,0.9-4.1,3.9-5.3,6.2c-2,0.4-0.5,3.1-1,4.5s-1.4,1.6-2.7,2.3c-1.2,0.7-2.6,1.2-3.4,2.3c-1.6,2.3-1.3,5.1-3.5,7.1
	c-3.4,3.1-7.9,1.8-12.2,1.8c-2.6,0-4.7,0.3-7,1.2c-2.4,1-4.9,3.4-7.8,2.8c-1.6-0.3-4.3-3.2-4.7-4.8c-0.5-2.1,0.4-3.1-1.1-4.4
	c-3.4-3-8.3-0.2-10.7,2.5c-0.6,0.7-0.7,1.7-1.3,2.4c-1.2,1.6-2.3,3-3.5,4.6s-3,4-4.6,5.3c-1.8,1.4-4.2,2.4-6.1,3.7
	c-2.5,1.7-2.6,2.9-2.9,5.2h345.1C536.4,345.8,533.6,346.3,532.6,346.2z"/>
<path class="st2" d="M690.3,346.3c-0.1-1.1-0.7-1-1.4-1.5c-1.2-0.9-1.6-2.9-1.7-4.3c-0.1,0-0.2-0.1-0.2-0.1c-0.1-0.3-0.2-0.7-0.2-1
	c0.2,0.1,0.5-0.1,0.7-0.1c-0.1-1.1,0.8-1.8,1.1-2.6c0.4-0.8,0.6-2,0.7-2.8c-1.5-0.1-0.5-1.4-0.3-1.9c0.5-0.8,0.5-1.3,0.4-2.3
	c-1.8,0.2-1.1-0.9-1.1-2.1c-0.1-1.1-0.2-2.1-1.3-2.6c-0.4-0.2-1.4-0.5-1.7-0.5c-0.5-0.1-0.8,0.4-1.3,0.3c-1-0.3-0.1-0.7-0.6-1.3
	c-0.3-0.3-1.1-0.1-1.5-0.1c0,0.3-0.1,0.7-0.1,1c-0.4,0-0.8,0.1-1.1,0.1c-0.1,0.6,0,1.1-0.1,1.7c-0.7,0.1-1-0.8-1.8-0.9
	c-0.2,0.6-0.6,1-0.9,1.5c-0.1,0.1-0.4,0.9-0.4,0.9c-1,0.7-0.5-0.9-0.9-0.9c-2-0.4-1,1.1-2.2,1.5c-0.6,0.2-2.7-0.8-2.4,0.2
	c-0.6,0.1-1.3,0-1.9,0.1c0,1.2,1.1,1.7,1.4,2.7c0.2,0.5-0.3,2.3-0.5,3.1c-0.2,0.6-0.6,1.1-0.8,1.7c-0.2,0.6-0.2,0.7-0.5,1.2
	s-0.3,1-0.5,1.5c-0.5,1-1.7,1.2-1.7,2.4c0,1,0.7,2,0.5,3.1c-0.2,0.8-0.7,1.3-0.5,2.2c0,0.1,0.1,0.2,0.1,0.3h22.6
	C690.3,346.5,690.3,346.4,690.3,346.3z"/>
<path class="st2" d="M568,345.9c-0.1,0.3-0.2,0.5-0.2,0.7h2.1C569.3,346.2,569,345.7,568,345.9z"/>
<path class="st3" d="M190.5,351.7c-1.2,5.2,2.5,5.3,5.8,7.8c0.7,0.5,1.1,1.1,1.8,1.6c0.5,0.4,0.5,0.9,1.2,1.1s0.6-0.7,1-0.7
	c1.8-0.2,4.3,0.3,5.7,1.3c1.9,1.3,1.3,3.7,1.3,5.9c0,1.4,0.1,2.1-0.5,3.1s-1.6,1.3-2.1,2.1c-0.7,1.1-1,4.6-0.5,6
	c0.4,0.9,1.5,1,1.7,1.6c0.4,0.7,0.1,2.2,0.1,3c1.8,0.4,1,1.1,1.8,1.9c0.5,0.5,1.3,0.8,2.1,1c1.8,0.6,3.7,0.8,5.7,0.8
	c3.3,0,3.1,0.5,3.1,3.6c0,2.1,0.2,3.8,0.8,5.7c0.6,1.9,1.5,3.7,2.3,5.5c0.9,1.7,2.2,2.9,2.6,4.7c0.5,2.4,1.5,2.9,2.8,4.9
	c1,1.6,4.1,4.8,3.6,6.8c-1.2-0.1-3,0.2-3.2,1.8c0.2,0.1,0.4,0.2,0.6,0.3c0.1,1.6-0.7,3.1-0.5,4.5c1.2,0.1,2.5,0,3.7,0.1
	c0,0.1,0,0.4,0,0.5c-0.3,0.2-0.3,0.4-0.5,0.5c-1,0-2,1.1-2.8,1.8c-0.6-0.6-1.5-0.4-2.2-0.4c0,0.1-0.1,0.2-0.1,0.3
	c-1.5,0.1-2.1,1.2-2.1,2.6c-1.9,0.2-4.5,0.4-6.2-0.3c-2.3-0.9-0.8-3.4-1-5.5c-1.5-0.1-3.2-0.2-4.7-0.1c-0.6,0.1-1.6,0.1-2.2,0.4
	c-0.8,0.3-1.2,1-2.1,1.4c-0.8,0.3-1.4,0.3-2.2,0.4c-1.2,0.1-1.1,0.1-2,0.9s-2,1.5-3,2.3c-0.1,1.2-3.9,0.7-4.9,0.7
	c-2.5,0-3.3-0.5-4.7-2.4c-0.4-0.5-1.2-1.9-1.7-2.1c-0.6-0.3-2.1,0-2.8,0c-0.9,0-1.6-0.3-2.4-0.4c-0.9-0.2-1.4-0.4-1.6,0.9
	c-0.8,0.2-1-0.4-1.7-0.6c-0.9-0.3-0.7-0.3-1.6-0.1c-1.1,0.3-2.2,0.9-3.6,0.3c-0.4-0.2-1-1.1-1.5-1.1c-0.5-0.1-0.9,0.6-1.4,0.8
	c-1.9,0.8-1.9-0.5-2.3-1.9c-1-0.2-1.8,2.1-2.1,2.9c-1.3,0-0.9-2.6-1.4-3.4c-1.1-2.2-1.2,1-1.2,2.1c0,1.6-0.3,2.7-0.7,4
	c-0.4,1.2-0.3,2.8-0.9,4c-2.8,0.2-5.7,0-8.5,0c-0.6,0-1.4,0.1-1.9,0c-0.4-0.1-0.9-0.7-1.4-0.7c-1,0.1-0.5,0.7-1.2,1.1
	c-0.5,0.3-1.2,0.2-1.8,0.2c-0.3,0.6-0.9,0.7-1.1,1.4c-0.3,0.8,0.4,1.7-0.5,2.1c-0.3,1-0.6,1.9-0.9,2.9c0,0-0.5,0.1-1.2,0.1
	c0.1,0.1,0.1,0.3,0.1,0.4c-0.2,1.2-1.2,1.5-0.1,2.3c0.8,0.5,3,0.6,4,0.6c2.6,0.1,1.7-2,2.8-3.5c1-1.5,3.1-0.4,4.6-0.9
	c0.5-0.2,1.6-0.9,2.1-1.2c0.6-0.5,1-1.6,1.9-1.4c-0.4,0.7-0.4,2-0.8,2.4c-0.5,0.6-1.5,0.4-2.1,0.7c-0.5,0.3-1,1-1.6,1.4
	c-0.8,0.5-0.7,0.6-1.9,0.7c-0.8,0.1-1.1-0.1-1.3,0.3c-0.1,0.2-0.2,0.3-0.3,0.6c-0.4,1-0.3,3.2-0.2,4.2c0.8-0.3,1.8-0.1,2,0.9
	c0.4,1.1-0.4,0.6-1.1,1.5c1-0.1,2.2,0.5,3.1,0.9c1.4,0.6-1,1.6-0.7,2.9c1,0,1-1.5,2-1.5c0.1,0.8,0.1,1.2-0.3,1.9
	c-0.4,0.6-1.3,0.4-0.7,1.2c0.9-0.4,1.8-2.1,2.9-1.7c0,0.2,0,0.3,0,0.5c-1.5,0.1-0.9,2.3-2.2,2.1c0.8,1,1.4,1.4,1.8,2.7
	c1.7,0,3.4,2.4,4.8,3.2c2,1,3.4,1.7,5,3.1c0.7,0.7,1.6,1.2,2.3,1.9c0.7,0.7,1.4,1.7,2.4,2c1.6,0.5,4.2-0.6,4.3,1.9
	c0.6,0.1,1.2,0.1,1.8-0.2c-0.2-1.1,3.2-0.3,4.1-0.2c1.1,0.1,2.1,0.5,3.2,0.4c0.9-0.2,1.3-0.7,2.3-0.6c0-0.2,0.1-0.3,0.1-0.5
	c1.7-1.2,3.9-0.2,5.7-0.9c1.1-0.4,1.1-1.6,2.3-1.9c0.8-0.2,2,0.3,2.6,0c0.2-0.1,1.2-1.5,0.7-1.5s-1-0.1-1.5-0.1
	c-0.1-0.8,0.9-1.6,1.7-1.2c1.1,0.5,0.5,1.9,2,0.7c-0.2-1.9,2.2-2.9,3.8-2.7c-0.1,1.9,1.8,2.2,3,1.2c-0.4,0.7-0.6,1.3-1.2,1.9
	c-0.7,0.6-1.1,0.6-1.6,1.6c-0.7,1.7-1.2,3.1-1.4,5c-1.4,0.5-2.5,2.3-3.6,3.3c-0.5,0.5-1.5,1-1.8,1.6s-0.2,1.4-0.4,2.1
	c-1,0.1-2.1-0.3-3.1-0.1c-0.6,0.1,0,0.7-0.9,0.5c-0.6-0.2-0.5-1-1.2-1.2c-0.3-0.1-1.1,0.1-1.4,0.2c-0.8,0.2-1.4,0.6-2,1
	c0.6-0.1,1.1-0.1,1.7,0c-0.2,1.2-2.2,2-2.2,3.2c-0.4-0.1-0.7,0.2-1.1,0.2c0,0.1-0.1,0.2-0.1,0.3c-0.3,0.1-0.6,0.1-0.8,0
	c0.4-2.1-2.3-1-3-0.4c-0.3,0.2,0,0.6-0.3,0.8c-0.2,0.2-0.6-0.1-0.7,0.1c-0.5,0.4-1.2-0.2-1,1c-0.2,0.1-0.5,0.2-0.6,0.2
	c-0.1-0.3-0.4-0.7-0.3-1.1c-1.5-0.1-2.9,0.3-4.4,0.4c0.2,0.1,0.3,0.1,0.5,0.2c0.1,0.3,0.1,0.8,0,1.1c-1.4,0.4-1.1-1-2.1-1.2
	c-0.6-0.2-1.6,0.5-2.1,0.7c-0.8,0.3-1.7,0.3-2.5,0.6c-0.6,0.3-0.9,0.9-1.6,1.1c0.2-0.8,1.4-0.6,1.1-1.7c-3,0.2-0.4-2.4,0.2-3.8
	c-0.7,0.6-1.5-0.1-2.3,0.1c-0.6,0.1-1,0.8-1.7,0.7c-1-0.1-1.6-1-0.7-1.8c0.6-0.5,1.6,0,1.6-1c-0.8-0.1-1.9-0.3-2.4,0.3
	c-0.4,0.4,0,0.8-0.2,1.2c-0.2,0.5-0.5,0.5-0.7,1c-2.7,1,0.8,4.8,1.6,6.1c0.7,1.1,1.1,2.4,1.9,3.6c1.8,2.7,4.2,4.9,6.2,7.6
	c0.9,1.3,1.4,2.1,2.8,3.1c1.4,0.9,2.2,2.2,3.4,3.3c1.3,1.1,2.1,1.9,3,3.3c0.7,1.1,1.2,2.3,2.7,2.1c-0.2,0.2-0.1,0.3-0.5,0.5
	c0.2,2.9,3.9,5.7,5.9,7.4c1.2,1,2.2,2.3,3.4,3.2c0.9,0.7,1.6,0.9,2.3,1.7c0.6,0.6,1.1,1.3,1.8,1.9c1.2,1.1,2.7,1.5,4,2.5
	c0.6,0.5,1.1,1.3,1.8,1.8c0.8,0.6,1,0.4,2.1,0.6c1.5,0.3,2.1,2,3.8,1.9c0.8-0.1,1-0.7,1.7-0.7c0.9-0.1,1.2,0.6,2.1,0.9
	c1-0.5,2.5,0.2,3.4,0.8c0.7-0.8,2.1-0.9,2.5-1.7c1.5-0.2,2.9,0.2,4.1-0.6c0.9-0.6,1.1-1.1,2.3-1.2c0.6-0.1,1.4,0.1,2,0
	c0.7-1.1,1.2-1.7,2.7-1.9c0.9-0.2,3,0.2,2.9-1.2c-0.9,0.1-1.9,0.1-2.2,1c-0.9-1.4,2.2-2,3-1.9c1.6,0.1,3,0.5,4.3-0.6
	c0.6-1.1,1.9-0.9,3-1.1c1.1-0.2,2-0.6,3-1.3c0.9-0.7,1.7-1.8,2.9-1.7c0.1-0.5,0-1.1,0.1-1.7c0.2,0,0.3-0.1,0.5-0.1
	c0.9-2.2,2.2-3.5,3.8-5s1.1-3.7,1.3-5.8c1.2-0.3,0.5-2.4,0.5-3.3c-0.1-0.7,0.2-1.4,0-2.1c-0.2-0.6-0.6-0.9-0.7-1.4
	c-0.3-1.2,0.1-2.4,0.7-3.3c0.4-0.7,1.3-1.5,1.5-2.4c0.3-0.2,0.4-0.3,0.6-0.6c-0.7,0.2-1.5,0-2.2-0.4c1-0.6,1.1-1.6,1.4-2.7
	c1.2-0.2,1.6,1,2.8,1s1-1,2.4-0.9c0.1-0.2,0.1-0.4,0-0.6c-0.9-0.1-1.9,0-2.8-0.1c0.3-0.7,1-0.7,1.7-0.7c0.5-3.2,4.7,0.3,5.8,0.8
	c1.6,0.9,5,0.5,6.8-0.3c0.1-0.1,0.3-0.2,0.4-0.2c-0.1,0.1-0.2,0.1-0.4,0.2c-0.7,0.5-1.8,2-2.5,2.4c-1,0.5-0.9,0.1-1.9-0.2
	c-0.7-0.2-1.5-0.1-2.2-0.5c-1.5-0.9-1.7-3.1-3.3-0.9c-0.7,0.9-0.4,3-1.3,3.5c0.5,0.4,1.1,0.7,1,1.4c-1,0.2-1,3.1-1,4
	c0.6,0.1,1.2,0.1,1.9,0c0.4-1,4.7-1.4,5.7-0.8c-1.4,0.6-2.4,1.4-3.9,1.5c-1,0.1-2.8-0.5-3.4,0.7c-0.4,0.9,0.1,2,0.1,2.9
	c0.1,0.9-0.7,2.1-0.5,2.9c0.5,0.1,5.3,0.4,5.3,1c0,0.2,0,0.3,0,0.5c-1.6,0.1-3.3-0.2-4.8,0.2c0.3,0.2,0.3,0.4,0.7,0.5
	c0,0.4,0.2,0.7,0.2,1.1c1.2,0.1,2.3-0.1,3.3-0.8c0.8-0.7,1.1-1.5,2.4-0.9c-0.2,0-0.5,0-0.7,0.1c-0.2,1.1-1.5,1.8-2.1,2.7
	c-0.5,0.6-0.5,0.9-1,1.4s-1.5,0.3-1.1,1.4c0.1,0,0.2,0.1,0.3,0.1c0.1,1.2-0.1,1.8-0.5,2.8c-0.2,0.5-0.6,0.5-0.5,1.4
	c0.1,0.6,0.2,0.9,0.7,1.2c-0.5,0.5-0.8,1.2-0.6,2.1c0.7,0.1,2.6-0.3,2.7,0.5c-0.7,0.1-1.5,0.7-1.7,1.4c1.1,0.2,2.3-0.2,3.4-0.1
	c0.1,0.2,0.1,0.4,0,0.6c-0.8-0.1-1.5,0.1-2.2,0.6c1,0.5,0.6,1.7,0.7,2.5c1.1,0.1,2.2-0.3,3.3-0.1c-0.2,0.4-0.3,1-0.2,1.5
	c-1.1,0.1-1.9,0.4-3,0.7c0.3,0.6,0.7,1.8,1.2,2.2c0.6,0.5,1.3,0.3,2.2,0.4c0.3,1.4-1.2,1.1-2,1.6c-0.2,2.2-0.1,4.3-0.7,6.4
	c-0.1,0.4-0.4,0.8-0.5,1.2c-0.2,0.7-0.1,1.2-0.5,1.8c-0.3,0.4-0.9,0.4-1.2,0.8c-0.5,0.7-0.1,1.7-0.5,2.2c-0.6,0.8-2.2,0.3-2.5,1.1
	c-0.2,0.7,0.9,1.4,0.7,2.2c-0.3,1.4-1.1,0.6-1.7,1.7c-1,2,1.8,3,1.6,4.8c-0.4-0.6-1-0.8-1.1-1.5c-0.4-0.1-1-0.1-1.4,0
	c-0.6,0.8-0.3,1.3,0.2,2c0.1,0.1,1.2,1.5,1,1.6c-0.3,0-0.7,0.3-1.1,0.2c-0.1,1.5-0.7,2.5-0.5,4c2.2-0.3-0.6,5.3,0.4,5.4
	c0.5,0.1,1,0.1,1.5,0c0.1-0.6-0.3-2,0.6-2.1c0.3-0.1,1.4,1.4,1.9,1.6c-0.8,1-3,0.7-3.3,2c-0.2,0.9,0.5,1,0.7,1.6
	c0.2,0.7,0,1.6,0.1,2.3c1.1,0.2,2.4,0,3.6,0.1c-1,0.7-3.6-0.1-4,1.1c-0.2,0.6,0.4,3.7,0.8,3.9c0.1,0.5,0.1,1.1,0,1.7
	c-0.9,0.4,0.1,1.1-0.2,1.9c-0.8,0.3-0.8,2.9,0.4,2.6c0.5-1.1,1-1.8,1.2-3.1c0.8-0.1,1.6,0,2.4-0.1c0.4-0.8-0.3-3.4,0.9-3.2
	c-0.1,0.8,0.4,1.3,0.6,2c0.1,0.6,0,1.5-0.2,2c-0.4,0-1.4-0.2-1.7,0c-0.7,0.3-0.3,0.5-0.7,1c-0.5,0.6-2.2,2-0.5,2.5
	c-0.1,0.3,0.1,0.7,0.1,1c0.7,0.1,1.2-0.2,1.8,0c0.4,0.1,0.7,0.7,1.1,0.9c-0.6,0.6-2.2,0.3-3.1,0.3c0-0.2-0.1-0.3-0.1-0.5
	c-2.4-0.4-2.5,2.9-1.7,4.4c0.2,0.3,0.6,0.5,0.8,0.9c0.3,0.5,0.2,0.9,0.4,1.4c0.4,0.8,0.9,1.7,1.5,2.3c-0.2,0.1-0.7,0-0.9-0.1
	c-0.1-0.2-0.1-0.3-0.1-0.5c-0.2-0.1-0.4,0-0.6,0c-0.4,1.4-0.3,3.1-0.2,4.5c0.4,0.1,0.7,0.4,1.1,0.4c0.1,0.7,0.2,1.7-0.3,2.2
	c0.5,0.1,1,0.1,1.5,0c0.2-0.6,0.6-0.9,1.2-0.8c-0.4,0.9,0.1,1.6-0.2,2.2c-0.2-1.4-2.1-0.9-3.3-0.9c-0.3,1.7,0.8,1.5,1.9,2.2
	c0.2,1-0.7,1.9-1,2.7c0.4,0,0.5,0.2,0.8,0.2c0.1,0.9,0.4,3.4,1.9,3c-2.4,0.7-0.7,3.4,0.2,4.6c1.5,2.1,0.5,4.1,0.7,6.4
	c0.6-0.1,1.3,0,1.7,0.4c-0.4,0.4-1.1,0.6-1.6,0.9c0.4,1.1,1,2.7,1.1,4.2H551c0.1-0.1,0.1-0.1,0.2-0.2c0.4-0.7,0.4-1.9,0.8-2.7
	c1-1.6,2.5-2.9,3.9-4.2c2.1-2.1,4.8-3.1,7.3-4.8c0.7-0.5,1.1-1,1.7-1.5c0.6-0.5,1.2-0.7,2-1c1.2-0.6,2.8-1,3.9-2
	c0.8-0.7,1.1-2,2.3-2.3c1.3-0.4,0.6-2.5,0.9-3.2c0.4-0.8,1.3-0.9,2-1.3c1.1-0.6,2.5-2.2,3.5-2.4c0.1-0.5,0.5-0.9,1-1
	c0.6-1.1,1.1-2.3,1.9-3.3c0.5-0.6,1.1-1,1.6-1.6c0.4-0.6,0.5-1.3,0.9-1.9c0.5-0.9,1.6-1.9,2.4-2.5c1-0.8,2-1.6,2.8-2.7
	c0.5-0.7,0.4-1.6,0.7-2.3c0.6-1.5,2.3-2.1,3-3.4c0.5-0.9,0.6-1.7,1.2-2.6c0.7-1,1.4-2.3,2.3-3.3c0.8-0.9,2.3-1.1,3.3-2
	s0.9-1.7,2.2-2.4c1.2-0.6,1.8-1.5,3.1-1.9c0.1-0.2,0.1-0.4,0-0.6c-0.5,0-1-0.1-1.5-0.2c-0.3,0.7-1.3,0.4-1.9,0.6
	c0.2-0.9,1.4-1.2,1.9-1.9c-0.4-0.2-0.9-0.3-1.3-0.5c-0.4,0.9-1.1,2.3-1.8,3c-0.3,0.3-0.7,0.5-1.2,0.6c-0.2,0.2-0.5,0.4-1,0.4
	c0.3-0.1,0.6-0.3,1-0.4c0.8-0.9,0.4-2.9,0.7-3.9c0.2-0.4,1.1-1.6,1.5-1.9c1.1-1.1,2.7-1.6,3.9-2.4c1.5-1.1,3.6-3.1,5.3-0.8
	c1,1.3-0.5,2.7-1.5,3.5c-0.2,0.2-3.8,2.1-3.8,1.9c-0.1,0.6-0.1,1.2,0,1.9c0.9,0.1,0.8-0.6,1.4-1c0.5-0.4,1.3-0.7,2.1-0.9
	c1.4-0.3,2.6-0.5,3.9-1.1c2.2-1.1,4.7-2.3,7.1-3.3c2.5-1.1,5.5-0.9,8.1-2.2c2.1-1,4.6-1.7,5.4-4.3c0.4-1.2,0.6-2.9,2-3.2
	c0.2-1.7,3.8-2.5,5.3-3.4c0.7-0.4,2.1-0.9,2.7-1.4c0.8-0.8,0.6-2.4,0.5-3.4c-0.5,0-1,0.1-1.5,0.1c-0.5-2.7,2.6-3.9,4.5-5
	c2-1.2,3.8-3.5,4.6-5.7c-0.3-0.1-0.7-0.1-1-0.1c-0.6,0.2-0.2,0.6-0.6,0.8c-0.3,0.1-0.8,0-0.9,0.1c-0.2,0.2-0.6,0.6-0.8,0.7
	c-0.7,0.4-1.1,0.3-1.9,0.5c-0.7,0.2-1,0.6-1.6,1c0.1-2.7,0.7-3,3.3-3.2c3.2-0.2,0.9-2.8-0.1-4.3c-0.8-1.5-1.7-3.2-2-4.8
	c-0.3-1.1-0.5-5.1,0.7-5.4c0.3-1.2,1.4-2.5,2.4-3.3c1.2-1,2.1-2.3,3.3-3.1c1.1-0.8,3-1.6,4.3-1.9c0.7-0.2,1.5-0.2,2.2-0.2
	c1,0.1,2,0.9,3.1,0.7c0,0,1.3-2.3,1.7-2.6c1.2-0.9,1.9-1.9,3.4-2.3c1.7-0.5,3.3-0.4,3.7-2.3c0.2-0.7-0.2-1,0.3-1.7s1.5-0.8,1.9-1.5
	c0.3-0.5,0.5-1.1,0.9-1.6c0.3-0.4,0.8-0.5,1.1-0.8c0.4-0.4,0.5-1,1-1.4c0.8-0.5,0.9,0.2,1.5-0.7c0.6-0.8-0.1-0.9,0.9-1.4
	c0.4-0.2,1-0.3,1.5-0.4c0.1-0.9,0.3-2.2,0.1-3.1c-0.2-1-1.1-1.4-1.4-2.2c2.6-0.7,2.9,2.7,2.6,4.3c-0.2,1.1-1,1.5-1.2,2.4
	c-0.3,1,0.5,1.6,1,2.4c0.5,0.7,0.6,0.7,0.7,1.4c0.1,0.3-0.2,1.4,0.1,1.6c0.7,0.7,1.7-0.7,2-1.2c0.5-0.8,0.5-1.5,1.4-1.9
	c1.3-0.6,1.9,0.1,1.8,1.4c0.4,0.1,1,0.1,1.4,0c0.2-2,0.1-1.9,2.1-2.1c-0.2-0.6-0.4-2.3-0.3-2.9c0.2-1,0.7-1.4,0.7-2.6
	c1.2-0.1,4,0.4,3.8-1.6c1.2-0.6,1.8-0.9,2.4-2.1c0.4-0.8-0.2-0.8,0.7-1.2c0.5-0.2,1.5,0,1.9,0.2c0.8,0.4,2.1,1.6,2.7,2.1
	c0.3,0.3,0.5,0.5,0.7,0.7c-0.2-0.6-0.5-1.2-0.9-1.8c-1.2-1.9-1.8-3-1.8-5.4c0-2.3-0.8-3.5-1.6-5.6c-0.4-1-0.4-1.8-0.5-2.9
	c-0.2-0.9-1.1-1.9-0.1-2.3c0.1-0.7,0.2-1.8,0-2.5c-0.3-0.8-0.9-0.9-1.1-1.3c-0.3-0.5-0.6-0.9-1.2-1c0.4-1.4-0.3-4.5,1.5-5.3
	c0.2-0.8,0.6-1.8,1.7-1.5c-0.6-0.3-3.1-1-3.7-1c-1.7,0.1-2.8,2.6-3.6,0.8c-0.5-1.2,0.1-3.4,0.3-4.6c0.1-0.5,0-0.8,0.2-1.2
	c0.2-0.5,0.7-0.5,0.8-1c0.3-1.3-0.8-1.2-1.8-1.6c-0.9-0.4-1.6-0.9-2.3-1.5c-0.3-0.2-0.1-0.7-0.5-0.9c-0.3-0.2-1.2,0.1-1.6,0
	c-0.2-1.7-0.4-3.5-0.2-5.2c0.1-0.6,0.1-1.8,0.6-2.2c0.6-0.5,1.5,0.2,2.1-0.2c0.7-0.5,0.4-0.8,0.7-1.6c0.5-1.5,1.5-2.5,1.6-4.1
	c0.1-1.5-0.4-4.2-1.6-5.7c-0.2,0-0.4-0.1-0.6-0.1c-0.6-0.1-1.2-0.5-1.8-0.6c-0.6-0.1-1.2-0.1-1.8-0.3c0.9,0,1.7,0,2.5,0
	c0.2,0,0.3,0,0.5,0c-0.9-0.3-1.9-0.1-2.9-0.2c-1.1-0.1-1.7-0.6-2.7-1c-1.1-0.4-2.4-0.4-3.6-0.4c0.2-1.2-1-1.8-2.1-1.9
	c-0.5-0.9-2.4-1.1-3.1-2.3c-0.4-0.5-0.4-1.2-0.8-1.8s-1.7-1-1.9-1.6c-0.5-1.1,0.5-0.9,0.8-1.6c0.2-0.4-0.1-0.8,0.2-1.2
	c0.3-0.5,0.6-0.7,0.9-1.1c0.8-1.4,0.5-3,0.6-4.6c0.7-0.1,2.9-0.4,3.4,0.2c0.4,0.4-0.1,1.1,0.4,1.6c0.3,0.4,1.2,0.2,1.7,0.2
	c-0.7-0.5-1.2-0.9-1-1.9c0.7-0.1,1.5,0,2.2-0.1c0.1-1.9-0.3-2.4,1.7-2.4c0.2-1.7-0.8-2.7-0.5-4.5c1-0.5,2.9-0.4,4-0.6
	c1.5-0.3,3,0.1,4.5-0.1c0.4-1.5,2.7,0.1,3.4-0.5c0.6-0.4,1.4-4.3,1.2-5c-1.5-0.3-0.8,1.1-1.6,1.5c-0.7,0.3-1.8-0.8-2.2-1.4
	c-0.5-0.7-0.6-1.5-1-2.3c-0.3-0.7-0.8-1.4-1.1-2.2c-0.9,0.8-1.1,1.4-2.2,1.8c-1.3,0.4-1.7,0.3-2.8-0.3c-1.4-0.7-3.3-1.4-3.9-3.1
	c-0.1-0.4,0.2-1,0-1.4c-0.2-0.5-0.9-1-1.4-1.4c-0.7-0.7-1.2-1.2-2.1-1.5c-0.7-0.2-1.4-0.4-2.1-0.6c-0.9-0.3-1.7,0.2-2.7-0.1
	c-0.1-1.8-0.8-5.8,1.5-6.2c0.1-0.9-0.6-1.2-0.7-2c-0.2-1,0.2-1.5,0.8-2.2c0.9-1.2,2.3-1.1,3.3-2c1-0.8,0.6-2,1.5-2.9
	c0.6-0.7,1.4-1,2.4-0.9c0.2-0.8-0.4-1.5-0.5-2.2c-1.8-0.1-2-0.2-2.8-1.7c-0.4-0.8-0.9-1.1-0.7-2.1c0.1-0.7,0.6-1,0.5-1.8
	c0.1,0.1,0.2,0.8,0.2,1.2c0.4-0.1,0.7,0.1,1.1,0.2c-0.1,1,2,2.2,3,2.1c-0.1,0.4,0.1,0.9,0.1,1.4c0.8,0.1,1.6,0,2.4,0.1
	c-0.1,0.5-0.3,0.9-0.5,1.4c0.9,0.1,1.8,0.2,2.8,0.2c0.1,0.7,0.3,1.8,0.1,2.5c-0.3,0.9-1.1,1.5-1,2.4c0.7,0.2,1.4-0.1,2-0.1
	c0.1,0.9-0.2,2.2,0.2,2.9c0.2-0.7,0.3-1.5,0.3-2.2c1-0.5-0.1-2.7,1.4-2.6c0.2,0.5,0.4,1.1,0.6,1.6c0.2-0.3,0-1.1,0.2-1.4
	c0.8-0.9,0.8-0.3,1.5,0c0.6,0.3,0.5,0.6,1.4,0.7c0.6,0.1,1.2,0,1.7-0.1c-0.6-0.8-1.1-1.8-1.7-2.5c-0.7-0.9-1.9-1.4-1.5-2.8
	c0.9-0.5,1.9-0.4,2.9-0.4c-0.2,1.5,1.4,1.1,1.9,1.9c0.3,0.5,0.5,2.1,0.5,2.6c0.2,1.1,0.1,1.6,0.5,2.4c0.6,1.1,1,1.5,2.1,2.1
	c1.5,0.8,3.2,2.2,5,2.4c0.8,0.1,3.3,0.5,4-0.1c0.2-0.2,0.2-1.1,0.3-1.5c0.2-0.4,0.8-0.8,0.9-1.2c0.1-0.2-0.1-0.9,0-1
	c0.4-0.8,0.7-0.6,1.6-1.3c0.4-0.3,0.4-0.7,1-1c3.6-2.1,1.9,5.5,4.1,6.3c0.2,1.6-0.4,2.5-0.5,4c0,0.3,0,0.6,0,0.9
	c0.1-0.4,0.2-0.7,0.3-1c0,0.5-0.1,0.9-0.2,1.2c0.1,0.9,0.4,1.9,0.5,2.9c0.2,2.9-0.7,7.3,0.8,9.9c0.9,1.5,2.7,0.6,4.1,0.5
	c1.9-0.2,2.6,1,4.2,1.7c0.8,0.3,2.6,0.4,3.4,0.6c1.4,0.4,2.1,0.8,3.7,0.9c2.2,0.1,4.9-0.1,7.1-0.4c2.5-0.4,5.1-0.3,7.6-0.3
	c1,0,2.1-0.4,3-0.4c1.1,0,2,0.8,3.1,0.8c1.4,0.1,2.4-1.1,3.9-0.8c0.3,0.7,3.4,0.8,4.4,0.8c1.2,0.1,3.6,0.8,4-0.6
	c-0.1,0.3,1.9,1.2,2.2,1.2c0.7,0.1,1.3-0.3,2-0.6c1.4-0.5,2.9-1,4.4-1.2c2.7-0.5,6.5-0.7,7.9,2.1c1.1,0.1,3-0.4,3.9,0.2
	c0.8,0.5,0.7,2.1,0.8,3c0.8,0.2,1.7,0,2.2,0.6c0.4,0.4,0.6,1.9,0.2,2.4c-1.2,1.7-4.7-1.4-6.3-1.4c-0.6,1.8,0.3,1.9,1,3.3
	c0.9,1.8-0.4,2.2-1.3,3.1c-0.3,0.8-0.4,1.5-0.4,2.4c0,1.4,0,1.5-0.7,2.4c-0.8,1-2.4,1.9-2.4,3.3c0-0.6-2.5,1.1-2.8,1.4
	c-1.6,1.2-1.4,3.2-2.9,4.5c-0.4-0.4-0.8-1-1.3-1.4c-0.4-0.3-0.9-0.4-1.4-0.4c-1-0.1-0.7,0.8-1.5,1.3c-0.4,0.3-0.9,0.4-1.3,0.7
	c-0.3,0.2-0.7,0.4-0.9,0.6c-0.1,0.1,0,0.4-0.1,0.4c-0.4,0.4-1,0.5-1.5,0.9c-1.4,1-3,0.4-4.6,0.7c-0.9,0.2-0.9,0.5-1.4,1.1
	c-0.4,0.6-1.1,1-1.4,1.7s-0.3,1.5-0.3,2.2c-0.2,1.1-0.5,2.1-0.9,3.1c-0.3,0.8-0.8,1.4-1.1,2.2c-0.2,0.5-0.1,0.9-0.1,1.4
	s-0.3,0.7-0.4,1.2c-0.2,0.8,0.7,2.1,1.2,2.7c0.7,0.8,1.3,1.7,1.8,2.7c0.2,0.4,0.5,0.8,0.6,1.2c0.1,0.4,0,0.8,0,1.2
	c0,1.2,0,2.3,0.5,3.5c0.4,0.8,1,1.6,1.1,2.4c0.1,0.7-0.2,1.6-0.1,2.3c0.2,1,0.9,1.9,1.2,2.9c1.5,0.1,2.2,0.1,2.1-1.5
	c-0.1-0.9-0.1-2-0.4-2.9c-0.5-1.2-0.6-2.3-0.5-3.7c0.1-1.1,0.7-0.7,1.5-0.3c1.8,1,0.7,3.3,1.4,5c0.4,0.9,1,1.6,1.8,2.2
	c0.7,0.6,1.1,1.2,1.7,2.1c0.7,1.1,1,0.9,1.8-0.1c0.6-0.7,1.2-1.2,1.7-2s1.5-1.6,1.8-2.4s0.2-2.5-0.2-3.4c-0.3-0.8-0.9-1.6-1.1-2.4
	c-0.1-0.5,0-1.2,0-1.8c0-1.3,0.5-1.4,1.7-1.5s1.2-0.4,1.1-1.5c-0.2-1.1-0.2-2.2,0.2-3.1c0.3-0.6,0.3-1.2,0.4-1.9
	c0.1-0.2,0-0.9,0.2-1c0.3-0.3,2.1,0.4,2.6,0.3c0.2-0.8,0.9-1.7,1.4-2.3c0.4-0.4,0.4-0.7,0.9-0.2c0.3,0.2,0.5,0.7,0.6,1
	c0.2-1.5,1.6-2.2,3-2c0.2,0.3,0.2,0.7,0.3,1c0.3,0.9,0.4,1.6,0.8,2.4c0.4,0.7,0.3,1.5,0.2,2.3c-0.1,0.7-0.3,1.6,0.2,2.2
	c0.5,0.8,1.5,1.1,1.7,2.1c0.3,1.6-0.1,3.5-0.1,5.2c-0.1,0.9-0.1,1.8-0.1,2.8c0,1.1,0.5,1.8,0.8,2.8c0.4,0.9,0.4,2,0.9,2.8
	c0.3,0.5,0.8,0.9,1,1.4c0.7,1.3,1.2,2.5,1.8,3.9c0.2,0.5,0.2,1,0.4,1.6c0.2,0.6,0.6,1.2,0.9,1.8c0.2,0.5,0.4,1,0.5,1.6
	c0.3,1,0.9,1.8,0.9,2.9c0,2.5,0.4,5,0.7,7.5c0.1,1,0.9,1.5,1,2.4c0.1,1,0.1,1.3,1.1,1c1.1-0.3,0.7-1,0.6-2c-0.1-0.7-0.2-2.2,0.7-2.2
	c0.6,0,0.6,0.4,0.9,0.8c0.3,0.3,0.7,0.5,1,0.8c0.8,0.7,1.2,1.2,1.6,2.2c0.3,0.8,0.3,1.6,1.1,1.7c0.7,0.1,1.6-0.2,2.2-0.3
	c0.3-1,0.2-2,0.9-2.8c0.6-0.8,1.5-0.3,1.6-1.4c0.1-1-0.2-1.7,0.5-2.3c1-1,1.8,0.7,2.7,0.2c0.2-0.1,0.3-0.7,0.4-0.8
	c0.2-0.3,0.3-0.4,0.4-0.7c0.3-0.9-0.5-3.7,0.6-4.2c0.1-0.6-0.5-1-0.8-1.5c-0.4-0.5-0.6-0.9-1.1-1.3c-0.9-0.8-0.6-2.1-0.8-3.2
	c-0.2-1.1-0.7-2.2-0.4-3.4c0.4-1.4,0-2.9,0.1-4.4c-0.8,0.4-1.2,0.4-1.7-0.6c-0.2-0.6-0.5-2-0.4-2.6c0.8-0.4,1-0.1,1.8,0.2
	c0.8,0.2,1.5-0.2,2.2-0.2c1,0,1.7,0.1,2-1c0.2-0.9,0.2-1.7,0.8-2.4c0.4-0.5,0.6-0.7,0.7-1.4c0.3-1.2,0.4-2.4,0.5-3.7
	c0.2-2.2,0.2-4.4,0.2-6.6c-0.1-1.8-0.6-3.6-1.3-5.3c-0.6-1.4-0.4-2.8-1.1-4.2c-0.6-1-1.5-2-1.9-3c-0.2-0.5-0.2-1-0.3-1.6
	c-0.1-0.9-0.1-0.9-0.7-1.5s-0.9-1.6,0.1-1.9c0.4-0.1,1.5-0.1,1.8,0.2c0.5,0.4,0.2,1.1,0.4,1.6c0.5,1,1.9,0.8,2.8,0.6
	c1.4-0.2,2.8-0.5,4.2-0.4c0.1-0.7,0.6-1,0.6-1.8c1.6,0.5,3.7,4.8,5.5,1.3c1.9,0.3,2.9,1.5,5.1,1.3c-0.1,1.2,0.5,2.3,1.6,2.5
	c1-0.9,1.2-2.2,1.1-3.7c0.3-0.2,0.5-0.1,0.7-0.2c0.2-4.9,1-8.2,2.9-12.3c0.5-1,0.5-2.3,1-3.2c0.6-1,1.5-1.5,1.6-2.8
	c0.1-1.1,0.5-1.8,1.1-2.7c0.6-0.9,1.1-2,1.7-3c0.9-1.7,2.6-3.2,3.1-5c0.3-1.1-0.1-2.2,0.3-3.3c0.2-0.7,0.5-1.7-0.1-2.3
	c-0.5-0.6-1.9-0.5-2.6-0.6c-0.6-0.1-1.8-0.2-2.2-0.7c-0.3-0.5-0.1-1.2,0-1.7c0.1-1.6-0.2-3.3,0.4-4.8c0.5-1.5,1.2-1.5,2.6-1.8
	c0.4-0.1,1-0.2,1.4-0.4c0.9-0.4,0.9-2,1.9-2.3c0.1-0.1,0.1-0.3,0.2-0.4c0.4-0.8-0.1-1.9-0.1-2.8c0-1-0.2-2-0.2-3
	c0.1-1,0.8-1.6,1-2.5c0.2-1.2,1-2.2,1.8-3.3c0.4-0.5,0.9-0.5,1.2-0.8c0.3-0.3,0.4-1,0.4-1.5c0.1-0.5-0.1-1.1,0.1-1.6
	c0.1-0.6,0.4-1.2,0.6-1.8c0.3-1,0-2.2-0.1-3.3c-0.1-0.5,0-1.4-0.5-1.7c-0.2-0.2-0.8-0.1-1.1-0.1c-0.1-0.6,0-1.1-0.3-1.6
	c-0.5-1-0.9-2.2-0.3-3.3c0.2-0.3,0.4-0.3,0.6-0.5c0.3-0.3,0.4-0.9,0.6-1.3c0.5-0.8,1-1.6,1.7-2.2c0.4-0.4,0.9-0.9,1.4-1.2
	c-0.2-0.6-0.4-1.2-0.5-1.9c0.5,0.4,0.8,1,1,1.7c0.1-0.1,0.3-0.1,0.5-0.1c0.6-0.2,1.5,0.1,2-0.2c0-1.7,1.6-2.5,2.3-4.1
	c0.2-0.5,0.7-1,1.2-1.4h-91.1c-0.1,0.6-0.1,1.4,0,1.7c0.3,0.8,2,1.8,2.9,2c0.1,1.6,1.2,2.7,0.7,4.4c-0.5,1.4-2.1,1.4-3.4,1.3
	c0-0.2-0.1-0.3-0.1-0.5c-0.3-0.1-1.2-0.4-1.6-0.2c-0.6,0.4-0.2,0.4-0.2,0.9c0,0.9,0.2,1.6-0.8,2.2c-0.2-0.9,0.1-1.7-0.8-1.9
	c-1.3-0.4-1.2,0.6-1.8,1.1c-0.9,0.9-2.5,0.1-3.6,0.4c-1.2,0.3-1.8,1.3-3.1,1c-0.1-0.6,0-1.1-0.1-1.7c-0.5,0-1-0.3-1.5-0.2
	c-0.2,0-0.9,0.3-1.1,0.4c-0.8,0.3-1.3,0.7-1.2,1.7c-1.2,0.6-3.2,0.6-4.6,0.4c-0.9-0.1-1.7-0.6-2.7-0.3c-1.1,0.4-1.4,0.9-2.6,0.8
	c-1.2-0.2-2.5-0.3-3.7-0.4c-1.4-0.1-3,0.3-4.3-0.3c-1-0.4-2.2-1.2-3.1-1.8c-0.9-0.6-1.7-1.1-2.8-1.2c-1.2-0.1-3,0.1-4.3,0.2
	c0,1.5,0,2.4-1.6,2.9c-1.2,0.4-2.2,0.6-3.4,1c-1.1,0.4-2,0.4-3.1,0.7c-1.4,0.4-2.5,1.2-4,1.5s-3.1,0.3-4.6,0.2
	c-1.5-0.1-2.8,0.3-4,0.8c-0.3-0.8,0.6-1.5,1-2c-0.7-0.2-1.9-0.2-2.5-0.4c-0.8-0.4-1.4-1.5-2.3-1.7c-2.3-0.7-3.1,1.6-5.2,1.4
	c-1.1-0.1-1.8-0.2-2.4-1.2c-0.7-1-0.1-1.4-1.7-1.6c-1.3-0.2-1.5,0.1-2.4-0.7c-0.6-0.5-1.2-0.9-1.7-1.6s-0.3-1.6-0.8-2.2
	c-1.2-1.5-1.1-0.7-0.9-2.5c0.2-1.3-0.5-2.7,1.5-2.6c0.2-0.7,0.5-1.5,0.6-2.2h-22.6c0.4,1.4,0.8,2.1-0.9,3c0.1,0.1,0.8,0.3,0.8,0.4
	c0.4,1-0.4,4.2,0.3,4.9c0.6,0.5,1.5-0.2,2,0.5c0.5,0.6-0.3,1.7,1,1.6c0.1,0.9-0.1,1.9,0.1,2.8c0.2,1.2,0.8,1.5,1.5,2.4
	c0.4,0.6,1.5,2.1,1.2,2.9c-0.1,0.3-1.1,0.8-1.4,1.2c-0.3,0.6-0.3,1.4-0.3,2.1c0,2.1-0.2,2.6-2.4,2.4c0-0.3-0.1-0.6-0.1-0.8
	c-0.8,0.8-0.6,1.8-0.8,2.8c-0.2,0.9-0.5,2.1-0.9,2.9c-0.9,0.3-2.7-2.8-4-3.2c0.1,0.4-0.2,0.6-0.2,1c0-0.2-4.4,1-4.7,1
	c-0.7,0.2-1,0.5-1.6,0.7c-1.7,0.5-3.2-1-4.7-0.6s-0.8,2.2-1.9,2.7c-0.8,0.4-1.6-1.2-2.9-1.1c0-0.2-0.1-0.4-0.1-0.6
	c-0.8-0.4-1.8-0.2-2.7-0.2c-0.1-1.5-0.4-3.7-1.1-5c-0.9,0.2-0.6,1.2-1.4,1.7c-0.4,0.2-0.9-0.1-1.2,0.2c-0.5,0.3-0.4,0.6-0.7,0.9
	c-1.4,1.5-2.4,2.2-4.6,1.9c-0.1,0.3-0.4,0.5-0.4,0.8c-0.8,0.1-1.5-1.4-2.2-1.9c-0.9-0.7-2.1-0.9-3-1.4c-0.4-0.3-0.6-0.5-1.4-0.7
	c-0.6-0.2-1.1-0.2-1.7-0.4c-0.8-0.3-3-1.7-3.3-0.6c-1.4,0.4-2.6,0.2-3.8-0.5c-0.8-0.5-1.5-1-2.4-0.9c-1,0.1-0.8,0.4-1.6,0.9
	c-0.5,0.3-0.9,0.7-1.4,1c-0.2,0.2-1.3,1-1.6,1c-0.6,0-1-0.9-1.5-1.3c-0.6-0.4-1.5-0.6-2.2-0.6c-0.2-2.2,0.1-4.4-0.1-6.6
	c-1.1-0.1-2.6-0.3-3.6,0.3c-0.8,0.4-2.9,1.8-3.1,2.4c-1.1,0.6-1,1.1-2.6,1.1c-1-0.1-2.2,0.2-3-0.7c-0.7-0.9,0-2.1-1.2-2.7
	c-0.7-0.4-2.2,0-3.1-0.1c-0.5-1.8-1.9-2.5-3.5-3.2c-1.7-0.8-3.7-0.1-5.7-0.4c-2.5-0.5-1.7-2.5-1-4.2c0.4-0.9,0.4-1.7,0.2-2.7
	s-0.7-2-0.8-3c-2.7-0.7-7,0.6-9.1-1.8c-0.4-0.5-0.5-1.5-0.8-1.8c-0.5-0.5-1.4-0.1-2-0.4c-0.1,0-0.2-0.1-0.3-0.1h-2.1
	c-0.1,0.7-0.1,0.8-1.2,1c-1.7,0.3-2.8,0.4-4.4,1c-0.5,0.2-0.9,0.7-1.5,0.9c-1.6,0.4-2.8-0.9-4.1-1.6c-2-0.9-4.3-0.7-6.5-0.5
	c-0.2,0.7-0.6,1.5-1.1,2c-0.6,0.6-1.8,0.8-2.1,1.6c-1.3,0.4-1.6-1.4-2-2.1s-0.9-1.4-1.9-1.8c-1.6-0.6-3.7,0.2-5.4,0.1
	c0-0.3-0.2-0.5-0.4-0.7H192.3c-0.1,0.5-0.1,0.9-0.2,1.5C191.8,349.6,190.9,350.3,190.5,351.7z M855.5,350.3c-0.7,0-1.1-0.4-1.4-0.9
	C854.5,349.6,854.9,349.9,855.5,350.3z"/>
<path class="st1" d="M268.7,633.3c0.6,0.1,1.1,0,1.7,0.1c0.2,1-0.6,0.6-0.8,1.2c-0.2,0.5-0.1,1.4,0,1.9c0.8,0.2,1.7,0.5,1.4,1.6
	c-0.9-0.1-1,0.7-0.8,1.4c1.4-0.1,0.3,2.6,0.4,3.6c0.4-0.1,0.7,0.2,1.1,0.2c0.2,0.9-0.6,0.9-1.4,0.9c1.1,1.4,0.9,4.9,1,6.7
	c0,0.9-0.3,2.1-0.2,3.1c0.1,1.4,0.7,2.3,0.9,3.6c0.2,1.1-0.1,2.3,0.3,3.3c0.5,1.2,0.7,2.1,0.9,3.5c0.1,0.6-0.1,1.7,0.1,2.2
	c0.2,0.6,0.9,0.9,1,1.3c0.2,0.9-0.8,1.5-1.3,2.1c0.1,1,0.9,1.1,1.6,1.7c0.6,0.5,1.1,1.1,1.6,1.8c1,1.4,1.2,3.2,1.9,4.8s1.4,3,2,4.6
	c0.5,1.1,0.5,2.4,1.5,3.2c0.4,0.4,2.8,1.1,3.4,1c-0.8,0.1-3.3,0.1-1.9,1.6c0.8,0.8,2.5-0.4,3.2,0.7c-0.8,0.1-2.1-0.2-2.7,0.3
	c1.2,2.3,2.9,4.3,2.7,7.2c-0.1,0-0.2,0.1-0.3,0.1c-0.2,0.8,0.9,1.3,1.3,2c0.5,0.9,0.9,1.6,1.5,2.4c0.7,0.9,0.4,1.8,0.8,2.6
	c0.4,0.9,1.7,0.9,1.9,1.7c-1,0.1-3.6-0.6-3.1,1.2c1.1,0.1,0.8,0.9,1.4,1.2c0.6,0.3,1.5-0.3,2.1,0c0.7,0.3,0.7,1.1,1.2,1.4
	c0.6,0.4,1.3-0.4,1.9,0.4c0.3,0.4,0.1,1.6,0.3,2.1c0.3,0.7,0.7,0.6,0.8,1.5c0.3,1.5,0.3,2.7,2.2,2.4c0.3,0.7-0.7,0.9-0.8,1.5
	s0.4,1.4,0.6,1.8c0.2,0.6,0.4,0.9,0.7,1.5s1,0.5,0.7,1.5c-0.1,0-0.2,0.1-0.3,0.1c-0.1,0.2,0,0.4,0,0.6c1.8,0.1,0.6,3.6-0.1,4.4
	c1.4,0.8,3.3,3,4,4.5c0.2,0.5,0.3,1.2,0.5,1.8c0.2,0.5,0.4,0.6,0.5,1.2c0.2,0.9,0,2.1,0.1,3.1c0.8-0.1,2.1-0.1,1.9,1
	c-2.3,0.8-0.6,1.8-0.3,3.5s0.3,3,0.2,4.5c-0.3,0.1-2,0.6-2,0.9c-0.1,0.6,0.9,0.7,1.4,1c0.8,0.5,0.7,0.4,1,1.4
	c0.2,0.8,0.5,1.5,0.8,2.2c0.4,0.8,0.5,1.2,0.5,2.3c0,0.8,0,1.6,0,2.4c0,0.7-0.1,1.6,0.2,2.2c0.4,0.8,0.9,0.6,1.7,1.2
	c-1.5,0.9,0.3,3,0.7,4.4c0.7,1.9,0.7,3.9,1.9,5.8c1.1,1.7,2.3,3.3,2.6,5.4c0.3,1.9,0.8,3.6,1.6,5.4c0.7,1.6,0.9,3.3,1.8,4.8
	c0.4,0.7,0.6,1.4,0.7,2.1c0.1,0.6-0.1,1.6,0.2,2.1c0.3,0.7,0.3,0.2,0.7,0.2s0.6,0.2,1,0.3c0.3,0.1,0.9-0.2,1.1,0.1
	c0.3,0.3,0,0.6-0.3,0.6c0,0.2,2.5,1.5,2.9,1.8c-0.5,0.1-1,0-1.5,0.1c-0.1,0.6,0.6,0.9,0.8,1.4c0.5,0.7,0.1,1,0.9,1.5
	c0.6,0.4,1.2,0.6,1.8,1c0.4,0.3,0.7,0.6,1.2,0.6c0.3,0.7,0.7,1.1,1.1,1.7c0.4,0.4,1.2,1.1,1.4,1.6c0.3,0.7-0.1,1.3,0.4,2
	c0.3,0.4,0.4,1.2,1,1.1c0.1,0.1,0.1,0.3,0,0.4c-0.3,0.1-0.6,0.1-0.9,0.1c0.1,0.5,0.6,0.7,0.7,1.3c0.1,0.4-0.1,0.8,0.1,1.2
	c0.2,0.5,0.4,0.6,0.8,0.7c0.6,0.2,0.5-0.1,0.9,0.4c0.3,0.3,0.6,0.7,0.8,1s0.2,0.9,0.4,1.1c0.4,0.3,2.1-0.3,2,0.5
	c-0.5,0.1-1,0-1.5,0.1c-0.1,0.4,0.4,0.5,0.6,0.8c0.2,0.4,0.2,0.7,0.2,1.1c0,0.9,0.4,1.7,0.5,2.5c0.1-0.1,0.2,0,0.3-0.2
	c0.5-0.1,1-0.1,1.5-0.1c0.1,0.7-1,0.7-1.1,1.3s0.6,1.3,0.8,1.8c0.2,0.7,0.1,1.3,0.3,1.9c0.2,0.6,0.3,1.3,0.4,1.9
	c0.2,0.7,0.5,1.3,0.7,1.9c0.2,0.6,0.2,1.3,0.3,2c0.2,0.7,0.7,1.4,0.7,2.1c0.1,0.6-0.1,1.4,0.2,1.9c0.1-0.5-0.1-1,0.2-1.4
	c0.1-0.1,0.2-0.1,0.2-0.1c0.1-0.3,0.2-0.5,0.2-0.8c0.1,0.1,0.1,0.1,0.2,0.3c0.4,0.2,0.6,0.1,0.8,0.5s0.1,0.8-0.3,0.8
	c-0.1,0.4,0.1,0.7,0.3,1c-0.4-0.2-0.8-0.2-1.2-0.2c-0.1,0.5,0.3,0.9,0.3,1.4c0.4,0.1,1.2,1.1,1.4,1.5s0.1,0.8,0.3,1.1
	c0.2,0.4,0.4,1.4,1,1.2c0-0.7,0.7-0.4,1-0.1c0.4,0.4,0.5,1,0.9,1.5c-1.1,0.1-1.2,0-1.3-1.1c-0.1-0.1-0.4-0.1-0.5,0
	c0.1,0.8,0.8,1.4,1,2.1c0.1,0.4,0.1,0.8,0.3,1.2s0.4,0.6,0.5,1c0.2,0.4,0.2,0.9,0.2,1.3c0,0.2-0.1,0.5,0,0.7s0.3,0.2,0.4,0.4
	c0.3,0.7,0.5,1.7,0.5,2.5c0.3-0.4,0.9-0.2,1.3-0.3c0-0.5-0.2-0.9-0.2-1.5c0.6,0.5,1.1,3.1,1.8,3c-0.7,0.1-0.8-0.5-1.4-0.5
	c0-0.1-0.1-0.2-0.1-0.3c-0.8-0.3-0.3,0.8-0.4,1.2c-0.2,0.1-0.3,0.2-0.5,0.3c0.2,0.4,0.3,0.8,0.4,1.1c0.2,1,0.2,1.4,0.9,2.1
	c0.5,0.5,0.8,1.3,1.3,1.8s1,0.9,1.5,1.6c0.4,0.5,1,0.8,1.1,1.6c0.1,0.7-0.2,1.5-0.1,2.2c0.1,0.8,0.7,1.1,0.8,1.9
	c0.2,1.6,0.1,3,0.2,4.6c0.4,0.1,0.8,0.1,1.2,0.1c0-0.2,0.1-0.4,0.1-0.5c0.8,0.6,1.4,0.9,1.2,2c-0.9,0.1-1.5-0.4-2.4-0.5
	c-1-0.2-1.7,0.1-1.7-1c0-0.7,0-1.4,0.2-2.1c0.2-0.5,0.7-1.2,0.6-1.8c-0.2-0.7-1.2-0.2-1.4-1.2c-0.1-0.8-0.1-1.5-0.3-2.2
	s-0.4-1.4-0.5-2.1c-0.1-0.7-0.5-1.1-0.8-1.7c-0.2-0.3-0.3-0.7-0.6-1s-0.6-0.3-0.6-0.7c0,2.3,1.4,4.2,1.7,6.6c0.1,1.4,0.4,2.5,0.4,4
	c0,1.1,0.1,2.3,0.3,3.4c0.1,1,0.6,1.9,1,2.8c0.4,1.1,0.2,1.9,0.4,3c0.2,0.9,0.8,1.9,1.2,2.7c0.5,0.9,0.8,1.9,1.3,2.9
	c0.4,0.9,0.4,2.1,0.7,2.8c0.2-0.3,0.2-0.7,0.2-1c0.7,0,1.2,0.5,1.2,1.1c-0.5,0.2-1,0.2-1.1,0.6c0.8,0.3,0.6,1.4,0.9,1.9
	c0.3-0.6,0.7-0.1,1-0.4c0.3-0.3-0.1-0.8,0.4-1c0.6-0.3,1.7,0.7,1.9,1.1c-0.5,0.5-1.5,0.5-2,1c0.2,0.2,0.4,0.5,0.7,0.6
	c-0.2-0.1-0.8,0.1-1.1,0c0,0.7,0.7,1.5,1.3,1.7c0.2,0.1,1.8-0.2,1.8,0.1c0.1,0.3,0.1,0.7,0.1,1c-0.4-0.1-0.7-0.2-1.1-0.2
	c-0.2,1.4,2.5,3.9,3.3,4.9c1.4,1.8,3,3.4,4.5,5.1c0.7,0.9,1.1,1.6,1.5,2.7c0.5,1.4,1,1.2,2.2,1.8c0.7,0.3,1.5,1,1.9,1.7
	c0.6,0.8,0.8,1.9,1.7,2.5c1,0.8,2.5,1.3,3.8,1.8c1.8,0.7,3.6,1.5,5.5,1.8c0.8,0.1,1.6,0.1,2.4,0.2c0.3,0,0.6,0.1,0.9,0
	c0.2-0.1,0.4-0.6,0.5-0.6c0.1-0.1,0.1-0.1,0.2-0.1c0.2-0.5,0.4-1.4,1-1.6c0.5-0.2,1.4,0,1.9,0c0.9,0,1.7-0.4,2.4-0.7
	c0.5-0.2,1-0.5,1.2-1c0.4-0.6,0.6-1.4,1.2-1.9c0.4-0.2,1.2-0.4,1.7-0.6c0.3-0.1,0.7,0,1-0.1c0.4-0.1,0.8-0.5,1.1-0.7
	c0.9-0.4,1.5-0.7,2.2-1.4s1.2-1.6,1.5-2.5c0.1-0.4,0.3-1,0.6-1.4c0.4-0.5,0.6-0.4,0.7-1.1c0.1-0.4,0.1-1.4-0.1-1.7
	c-0.3-0.3-1.3-0.5-1.4,0c-0.6,0.1-1.2,0.1-1.9,0c0.1-1.1,2.4-0.6,3.2-0.7c0.3-0.7,0.1-1.4,0.6-2c0.4-0.4,0.8-1,0.9-1.5
	c0.3-1.3-0.1-3,0-4.4c0-0.6,0.2-2.1,0.7-2.6c0.2-0.3,0.7-0.2,0.9-0.3c0.4-0.2,0.5-0.5,0.9-0.8c0.7-0.5,1.5-0.2,2.1-0.7
	s0.9-1.4,1.6-1.9s1.7-0.5,2.4-0.6c1.9-0.3,3.8-0.6,5.6-1.3c0.6-0.2,0.9-0.2,1.6-0.3c0-0.2,0.1-0.4,0.1-0.6c0.5-0.3,1.4-0.5,1.9-0.6
	c0.3-0.5,0.3-0.6,0.8-0.8c0.4-0.1,0.8-0.1,1.1-0.2c1.5-0.4,2.8-0.9,4.5-0.7c1,0.1,1.9,0.4,3,0.4c1,0,2-0.1,3,0.1
	c1.4,0.2,2.9-0.1,4,0.7c0.5,0.3,1.1,0.7,1.6,1.1c0.2,0.2,0.4,0.3,0.5,0.5c0.1-0.3,0.2-0.6,0.3-0.9c-0.3-0.3-0.7-0.4-1.2-0.6
	c-1.1-0.6-0.8-1.5-0.9-2.6c-0.7-0.2-0.8,0.5-1.1,0.8c-0.5,0.5-1.1,0.5-1.8,0.5c-0.8,0.1-1.5-0.3-2.3-0.4c-0.6-0.1-1.2-0.1-1.8-0.2
	c-0.2-0.8-1-0.8-1.6-1.1c-0.7-0.4-1.4-0.8-2.2-1.1c-3-1.3-1.3-5.7-0.4-7.8c0.6-1.2,2.1-1.9,2.5-3.3c0.4-1,0.8-1.9,1.9-2.6
	c0.2-1.7,1.9-2.7,2.8-4c0.3-0.4,0.6-0.8,0.9-1.1c0.3-0.3,0.8-0.3,1.1-0.5c0.9-0.8-0.2-1-0.8-1c-0.1-0.7,0-3.5,0.9-3.4
	c0.1-0.6,0-1,0.3-1.5c0.4-0.6,1.2-1.8,1.9-2c0.7-0.3,1.5-0.4,2.2-0.4c1.8,0,3.5,0.8,5.4,0.8c1.2,0,2.2-0.3,3.4-0.1
	c0.5,0.1,0.9,0.4,1.4,0.4c0.5,0.1,1,0.1,1.5,0c-0.4-0.7-1.3-0.9-2-1.1c-1-0.3-2.2-0.7-3.2-0.8c-0.5,0-1-0.1-1.5,0s-0.9,0.1-1.5,0.1
	c-0.2,0-0.6-0.1-0.8,0s-0.4,0.2-0.6,0.3c-0.3-0.7,0.8-0.9,1.3-0.9s1.1-0.1,1.7,0c0.5,0.1,1,0.2,1.6,0.2c0.6-0.1,1.1-0.5,1.7-0.5
	c0.6-0.1,1.3,0.4,1.8,0.7s0.6,0.3,1.2,0.4c1.2,0.2,0.7,1.1,1.2,1.9c0.6-1,0.6-1.9,0.6-3c0-1.8-0.1-3.6-0.2-5.4
	c-0.2-3.4-0.6-6.9-0.8-10.4c-0.2-3-0.1-5.9-0.2-8.9c-0.1-1.5-0.1-3.2-0.4-4.7c-0.1-0.4-0.3-0.5-0.4-0.7c-0.2-0.4,0.1-1,0-1.5
	c-0.1-0.6-0.3-0.5-0.6-0.9c-0.9-1.2-0.4-4.2-0.1-5.6c0.2-1,0.3-2,0.3-3.1c0-1,0.1-2.3,0.3-3.3c0.3-0.9,0.9-1.8,1.1-2.8
	c0.1-0.7,0.2-1.3,0.3-2c0.1-0.3,0.4-1.1,0.3-1.4c-0.3-0.6-1.5,0.1-1.6-0.5s0.9-1.4,1.5-1.2c0.3,0.1,0.7,1.1,0.5,1.1
	c0.6-0.1,0.7-0.3,0.9-0.7c0.1-0.1-0.1-0.3-0.1-0.5c0.1-0.3,0.3-0.4,0.3-0.7c0.1-0.5,0-0.7,0.3-1.1c0.2-0.3,0.6-0.6,0.9-0.9
	c0.9-0.8,2-1.6,2.8-2.6c0.4-0.5,0.4-0.8,0.6-1.4c0.2-0.5,0.6-0.8,0.9-1.2c0.4-0.5,0.5-1.2,0.3-1.7c-0.3-0.6-0.6-0.5-1.2-0.8
	c-0.3-0.2-0.6-0.5-0.9-0.5c0.4,0,0.8-0.1,1.1,0s0.6,0.4,0.8,0.4c1.5,0.2,2.9-4.2,3.2-5.3c0.4-1.4,1-2,1-3.5c0.1-1.2-0.1-2.4,0-3.6
	c0.1-2.4,2-3.9,2.1-6.2c0.1-2,0.1-4.1-0.5-6.1c-0.4-1.6-1.8-2.2-2.1-3.7c-0.2-1.1-0.4-1.4-1.7-1.3c-0.2-0.9-1.2-1.7-1.3-2.5
	c1.8,0.1-0.4-3.1-0.5-3.5c-0.3-1.2-0.1-3.2,0-4.4c0.2-0.1,0.5-0.1,0.7,0c0.1,2.5,1.9,4.4,2.2,6.9c0.2,0.8,0.5,1,0.8,1.8
	c0.2,0.5,0,1.2,0.2,1.7c0.1,0.4,0.8,1.5,1.4,0.9c0.6-0.5-0.4-0.9-0.5-1.2c-0.4-0.9,0.1-2.2-0.1-3.2c-0.3-2-0.9-3.9-1.1-5.9
	c-0.2-1.5,0.1-2.8-0.3-4.3c-0.4-1.5-0.8-2.8-0.9-4.4c-0.1-1.4-0.7-2.4-0.9-3.8c-0.7-0.2-1.4,0.1-1.5,0.7c-0.5-1.4,0.7-1.2,1.7-1.2
	c0.1-1,0.1-1.2,0.6-2c0.4-0.7,0.9-0.8,1.2-1.8c0.4-1.5,0.2-3.2,0.2-4.7c0-0.7,0.1-1.4,0-2.1c-0.3-1.6-1.3-3.2-1.7-4.8
	c-0.5-2-1.1-4.2-1.4-6.2c-0.2-1.9-0.1-4.4,0.6-6.2c0.3-0.6,0.7-1.1,0.9-1.8c0.6-2.1,1-5,2.9-6.6c1.7-1.4,1.5-3.4,2.6-5
	c0.6-0.9,1.4-2.4,2.6-2.8c0.7-0.2,1.5,0.1,2.2-0.1c0.8-0.2,1.1-0.8,1.9-1.1c0-0.2,0-0.3,0.1-0.5c1.6-1,3.8-0.8,5.7-0.7
	c-0.1,1,0.5,1.8,0.6,2.8c0.1,0.8-0.5,2.6,0.8,2.2c-0.1-0.8-0.1-1.7,0.9-1.9c0.1,0.7-0.2,1.3-0.1,2c1.5,0.1,1.1-2.5,1.2-3.4
	c0.5,0.7,0.2,2.2,1.5,1.9c0.1,0.2,0.1,0.3,0.1,0.5c0.2,0.1,0.4,0,0.6,0c-0.1-0.4,0.1-0.8,0-1.1c0.2,0.5,0.7,0.6,1.2,0.5
	c-1-0.3-0.7-2,0-2.8c1.4-1.3,2.9-1.6,3.6-3.5c0.3-0.8,0.2-1.5,0.6-2.2c0.4-0.7,1.2-1.1,1.7-1.7c0.7-0.9,0.7-1,0.7-2.2
	c0.1-2,0.8-2.2,2.6-2.4c1.2-0.1,2.6-0.5,3.8-0.9c0.2-1-1.8-1.1-2.5-0.8c-1.2,0.4-1.2,1.2-2.8,1c0.3-1.5,3.7-1.2,5-1.2c1,0,2,0,3,0.2
	c1.1,0.3,1.9,1,2.9,1.2c0.1,0.2,0.2,0.5,0.2,0.6c0.1-0.7,0-1.5,0.1-2.2c1,0.2,0.6,1.6,0.7,2.4c1.6,0.3,3.5-0.6,4.8-1.2
	c1.7-0.7,2.4-1.9,4-2.6c1.5-0.7,3.2-0.9,4.5-1.8c0.7-0.4,1-0.6,1.3-1.3c0.4-0.8-0.1-1.7,0.7-2.4c-0.1,0.7-0.1,1.5,0,2.2
	c0.2,0.1,0.4,0.1,0.6,0c0.5-0.2-0.1-3.2,0-3.6c0.2-0.9,0.5-2.3,0.8-3.2c0.4-1,1.1-1.5,0.9-2.8c-0.1-0.7-1.1-1.9-1.9-2
	c-0.1,0.3-0.1,0.8,0,1.1c0.2,0,0.3,0.1,0.5,0.1c0.1,1.2,0.2,2.7-0.4,3.7c-2.5,0.7-0.4-6.1,0.2-6.9c0.8-1.1,2.2-1.4,3.3-2.1
	c1.5-0.9,2.5-2.1,4-3.1c1.1-0.7,2-1.1,2.8-2.3c1.1-1.8,2.2-2.1,4.1-3c1.6-0.8,3.3-1.7,5.1-2.1c1.1-0.3,2.3-0.6,3.3-1.2
	c0.9-0.6,1.1-1.6,1.8-2.3c0.5-0.6,1.4-0.8,1.9-1.3H269.5C269.6,631.4,269.4,632.5,268.7,633.3z"/>
<path class="st1" d="M863.4,914.7c0.7-0.1,1.1,0.3,1.6,0.4l-0.2-0.2c0.5,0.1,1.1,0,1.6-0.1c-0.3-0.2-0.4-0.6-0.6-0.9h-2.2
	C863.4,914.1,863.4,914.4,863.4,914.7z"/>
<path class="st1" d="M866.2,912.8c-0.4-0.1-0.5-0.1-0.8-0.2c-0.5,0.6-1.5,0.7-1.8,1.3h2.2c-0.1-0.1-0.1-0.2-0.2-0.3
	C866,913.4,865.9,913.1,866.2,912.8z"/>
<path class="st1" d="M843.4,895.4c0.4-1-0.1-1.6-0.6-2.3c-0.3-0.4-0.5-0.8-0.6-1.3c0-0.2-0.2-1.5-0.1-1.5c-0.5-0.1-0.8-0.1-1.3,0
	c-0.4,2.2,1,3.2,1,5.1C842.3,895.6,842.9,895.6,843.4,895.4z"/>
<path class="st1" d="M855.8,886.5c0.1,0.8,0.5,1.7,1.1,0.6c0.2-0.3,0.1-0.8,0-1c-0.1-0.3-0.2-0.6-0.3-0.9
	C855.8,883.7,855.8,886,855.8,886.5z"/>
<path class="st1" d="M873.1,923.7c-0.1-1.3-1.6-1-2.2-1.9c-0.4-0.5,0-4.1,0.3-4.1c-1.5-0.1-3.1-0.3-3.6,1.4c-0.7-0.1-1.5,0-2.2,0.2
	c0.1,1.7-0.2,3.3-0.2,5c0.8,0.2,1.4,0.4,2,0.6c0.9,2,1.9,4.3,2,6.6c1,0.1,2.1,0.1,3.2,0c0.1-1,0.3-2.4,0.2-3.3
	c-0.2-1.1-1-1.4-0.5-2.8C872.3,924.8,873.1,924.2,873.1,923.7z"/>
<path class="st1" d="M856.1,774.8c-0.4-0.3-0.8-0.5-1.2-0.7l0.4-0.4c-0.4,0.3-0.8,0.3-0.7,1C855.1,774.8,855.6,774.8,856.1,774.8z"
	/>
<path class="st1" d="M828.2,753.2c1.1-1.6-1-4.1-0.7-5.7c0.5-0.1,1.4-0.1,1.9,0c-0.1,0.6,0.2,1.3,0.1,1.9c0.4,0.1,1.2,0.1,1.7,0
	c0.1-1.6-0.2-3.1-0.2-4.8c0-0.6,0.3-2-0.1-2.5c-0.3-0.6-1.8-0.3-1.9-1.2c-0.1-0.8,1.2-0.9,1.6-1.4c0.8-1.1,0.4-0.4,0.4-1.5
	c-0.1-1.9-1.1-6.9-3.3-2.8c-0.6,1.1,0.3,3.4-1.4,3.6c-0.5,1.9-0.2,4.1-0.1,6c0.1,2.2-0.4,3.7-0.7,5.7c-0.1,0.7-0.7,2.1-0.1,2.8
	C826.2,754.2,827.8,753.8,828.2,753.2z"/>
<path class="st1" d="M829.1,771.4c-1-0.6-1.5,0.1-1.7,0.9c-0.2,1-0.1,2.3,0,2.7c0,0.2,1.5,0.1,1.6,0
	C829.8,774.8,829.7,771.7,829.1,771.4z"/>
<path class="st1" d="M852.9,902.8c-0.2-0.3-0.8-0.5-1-0.6c-0.8-0.5-1.8-0.8-2.8-0.8c0,0.3,0,0.6,0,0.9
	C849.1,902.1,852.8,902.9,852.9,902.8z"/>
<path class="st1" d="M823.9,764.5c-0.1,1.7,0.9,3.2,0.9,5c1.5,0.1,3,0.1,4.5,0c0.1-1.6-0.7-2.9-0.5-4.5c0.5,0.1,1.1-0.2,1.7-0.1
	c-0.2-0.9,0.7-1.5,0.7-2c0-1.1-0.7-1.4-1-2.3c-0.4-1.4,0.8-4.1-0.5-5.2c-0.8-0.6-4-0.1-4.6,0.6c-0.4,0.5,0.5,3.2,0.2,4.5
	C824.9,762,823.9,763.1,823.9,764.5z"/>
<path class="st1" d="M811.1,799.7c0.2-0.7,0.1-1.4-0.3-2h-0.7c-0.6,0.5-0.9,1-0.6,2C809.9,799.8,810.7,799.8,811.1,799.7z"/>
<path class="st1" d="M822.6,784.9c0.1,0.8,0,1.6,0.1,2.4c1.1,0.5,0.4,1.5,0.8,2.3c0.3,0.6,1.3,1,1.6,1.7c0.3,0.5,0,1.1,0.3,1.6
	c0.7,1.1,0.1,0.9,1.6,0.8c0.8-0.1,1.5-0.7,2.3-0.8c0.3-1.5-0.3-3.3-0.3-4.8c0-1.6,0.5-3.1,0.5-4.6c-1.7-0.2-2.1,1.4-3.1,2.2
	c-1-1.2,0.2-3.7,0.2-5.2c0-1.4-0.5-2.6-0.8-4c0-0.1-0.1-0.3-0.1-0.4c0,0.1,0.1,0.3,0.1,0.4c0,0.1,0.1,0.3,0.1,0.4l-0.4-1.4
	c0,0.2,0.1,0.4,0.1,0.6c-0.2-0.7-0.5-1.5-1.3-1.6c0.2,1.2-0.7,2.3-0.9,3.6c-0.2,1.3,0.3,2.7-0.4,3.8c0.8,1,0,2.8-1,1.4
	c-0.5,0.5-0.6,0.9-0.5,1.6C821.8,784.7,822.1,785,822.6,784.9z"/>
<path class="st1" d="M803.6,789.9c1,0.4,0.7-0.2,1-0.6v-0.4c-0.3-0.5-0.5-1.1-1-1.4C803.4,788.2,803.5,789.2,803.6,789.9z"/>
<path class="st1" d="M845.3,892.4c-0.6-0.2-0.6,1.6,0.6,1.6c0.2,0,0.2-0.8,0-0.9C845.7,892.8,845.2,892.9,845.3,892.4z"/>
<path class="st1" d="M853.8,897.6c-0.1,0.8,0.2,1.8,0.1,2.7c0.5,0.5,0.9,0.9,1.4,1.4c0-1.3,0.3-2.7,0.2-3.9c-0.1-0.7-0.4-1-0.7-1.5
	c-0.1-0.1-0.1-0.1-0.1-0.2c-0.5-0.8-0.5-1.6-1.1-2.3C852.6,894.6,852.2,897.2,853.8,897.6z"/>
<path class="st1" d="M840,888.8c0.4-1.1-0.6-0.5-0.9-1.4c-0.3-0.7-0.7-0.4-0.5,0.3C838.9,888.4,839.3,888.7,840,888.8z"/>
<path class="st1" d="M820.3,824.6c0.5-0.8,1-0.8,1.8-1.2c1.5-0.7,1.2-0.2,1.4-1.4c0.4-2.5,0.9-6.2-0.9-8.3c-0.8,1-0.7,2.9-2.2,3.3
	c-0.1,0.3,0,0.6-0.1,0.8c-0.3-0.1-0.7,0.1-1,0.1C819.3,819.4,817.5,825.4,820.3,824.6z"/>
<path class="st1" d="M829.9,865.1C829.8,865.1,829.8,865.1,829.9,865.1c-0.3-0.4-0.8-0.3-1.2-0.4c-0.1,1.7-0.1,3.4,0,5
	c0,0.4,1.2-0.7,1.3-0.9c0.3-0.5,0.6-1.5,0.6-1.9c0.2-0.1,0.5-0.2,0.7-0.3c-0.3-0.2-0.7-0.3-0.9-0.6S830.1,865.4,829.9,865.1z"/>
<path class="st1" d="M824.7,794.3c0.3,1.7-1,2.4-0.7,4.1c0.8,0.1,1.6,0.1,2.4,0c0.2-0.8,0-1.7-0.2-2.4c0.2-0.2,0.4-0.6,0.3-1.1
	C826,794.7,825.3,794.5,824.7,794.3z"/>
<path class="st1" d="M272.8,844.9c0.1,0.2,0.4-1.3,0.4-1.4c0-0.6,0-1.2,0-1.8C272.6,842.7,272.1,844,272.8,844.9z"/>
<path class="st1" d="M229.5,809.7c0.6-0.7-0.3-1.6-0.9-1c-0.6,0.5,0.3,1.5,0.8,1.5c0-0.4,0.2-0.5,0.4-0.8L229.5,809.7z"/>
<path class="st1" d="M231.7,795.8c-0.2,0.7-1,3.2,0.4,2.3c0.1,0,0.1,0,0.1-0.1C232.9,797.5,232.3,796.2,231.7,795.8z"/>
<path class="st1" d="M231.3,819.6l0.4,0.2c0-0.3,0-0.7-0.1-1c-0.3-0.1-0.7-0.1-1,0c-0.1,0.5,0,1.2,0.2,1.7c0.3,0.2,0.8,0.3,1,0.4
	C232,820.2,231.7,820.1,231.3,819.6z"/>
<path class="st1" d="M225.4,776.6L225.4,776.6L225.4,776.6C225.3,776.6,225.4,776.6,225.4,776.6c-0.2,0.2-0.3,0.3-0.2,0.7
	c0.4-0.1,0.7-0.3,0.7-0.7C225.7,776.5,225.5,776.5,225.4,776.6z"/>
<path class="st1" d="M231.4,840c-0.3,0-0.4,0.2-0.4,0.5c0.1,0,1.2,0,1.2-0.2C232.1,840.1,231.7,839.9,231.4,840z"/>
<path class="st1" d="M230,842.2c-0.3,0-0.8,0.1-0.4,0.4c0.1,0.1,0.8,0.3,0.8,0.1C230.4,842.3,230.4,842.2,230,842.2z"/>
<path class="st1" d="M224.1,774.6c-0.1,0.3-0.3,0.4-0.3,0.6c0.3,0.1,0.5,0.1,0.8,0c-0.2-0.2-0.4-0.2-0.5-0.4V774.6z"/>
<path class="st1" d="M242.3,829.6c-0.2,0.7-0.2,1.4-0.3,2C242,832.5,246.3,829.6,242.3,829.6z"/>
<path class="st1" d="M216.8,797.2c-0.2-0.3-0.6-0.7-0.6-0.2c0,0.4,0.5,0.7,0.8,0.9C217,797.7,216.9,797.4,216.8,797.2L216.8,797.2z"
	/>
<path class="st1" d="M221.4,789.7c-0.2,0.5,1,1.5,1.6,1.3c0.1-0.3,0.1-0.7,0.1-1C222.9,789.4,221.6,789.1,221.4,789.7z"/>
<path class="st1" d="M242.9,820.3c-0.1,0-0.4-0.9-1.1-0.8C241.8,820.5,242,820.4,242.9,820.3z"/>
<path class="st1" d="M248.4,794.3c-0.1,0.7,0,0.8,0.6,1c0.1-0.6-0.1-0.8-0.3-1h0.4C248.9,794.2,248.7,794.2,248.4,794.3z"/>
<path class="st1" d="M249.1,809.2c0.1-0.3,0.1-0.5,0-0.8V809.2z"/>
<path class="st1" d="M252.5,895.3c0-0.4,0-0.9-0.1-1.4c-1.5-0.4-0.9,3.2-1.2,3.2c1.3,0.2,1.9-0.7,1.7-2.1L252.5,895.3z"/>
<path class="st1" d="M257.4,801.1c-0.5,0-0.3,0.6-0.6,1c0.2-0.3,1.2,0.3,1.3-0.3C258.2,801.5,257.7,801.1,257.4,801.1z"/>
<path class="st1" d="M234.9,815.6c-0.6,0.4,0.2,1,0.7,0.9C235.9,816.4,235.6,815.2,234.9,815.6z"/>
<path class="st1" d="M247.8,807.6c-0.1,0.7-0.1,1.5,0,2.2c0.9,0.1,1.2-0.6,1.3-1.4C249,807.7,248.5,807.3,247.8,807.6z"/>
<path class="st0" d="M214.8,532.8C214.7,532.7,214.7,532.7,214.8,532.8c-0.3-0.2-0.6-0.2-0.7,0c-0.2,0.1-0.5,0.3-0.5,0.5
	s0.4,0.2,0.6,0.2c0.3,0,0.4,0.1,0.6-0.1S215.1,532.9,214.8,532.8z"/>
<path class="st0" d="M600,574.8c-0.4,0.1-0.7,0.3-1,0.4C599.5,575.2,599.8,575.1,600,574.8z"/>
<path class="st0" d="M273.9,492.6c0.1-0.1,0.3-0.1,0.4-0.2C274.1,492.4,274,492.5,273.9,492.6z"/>
<circle class="st4" cx="409.7" cy="484.1" r="116.8"/>
<circle class="st0" cx="409.7" cy="484.1" r="102.2"/>
<circle class="st4" cx="409.7" cy="484.1" r="20.4"/>
<ellipse transform="matrix(0.1305 -0.9914 0.9914 0.1305 -48.9861 939.1531)" class="st4" cx="510.9" cy="497.5" rx="5.1" ry="5.1"/>
<path class="st4" d="M409.7,586.3l3.5-61.3l-3.5-29.2l-3.5,29.2L409.7,586.3z"/>
<ellipse transform="matrix(0.3827 -0.9239 0.9239 0.3827 -172.1986 788.7491)" class="st4" cx="504.1" cy="523.2" rx="5.1" ry="5.1"/>
<path class="st4" d="M383.2,582.8l19.3-58.3l4.2-29.1l-10.9,27.3L383.2,582.8z"/>
<ellipse transform="matrix(0.6088 -0.7934 0.7934 0.6088 -241.3623 603.1288)" class="st4" cx="490.8" cy="546.3" rx="5.1" ry="5.1"/>
<path class="st4" d="M358.6,572.6l33.7-51.4l11.6-27l-17.6,23.5L358.6,572.6z"/>
<ellipse transform="matrix(0.7934 -0.6088 0.6088 0.7934 -246.5442 404.1144)" class="st4" cx="472" cy="565.2" rx="5.1" ry="5.1"/>
<path class="st4" d="M337.4,556.4l45.9-40.9l18.2-23.1l-23.1,18.2L337.4,556.4z"/>
<ellipse transform="matrix(0.9239 -0.3827 0.3827 0.9239 -187.2227 215.7931)" class="st4" cx="448.8" cy="578.5" rx="5.1" ry="5.1"/>
<path class="st4" d="M321.1,535.2l54.9-27.6l23.5-17.6l-27,11.6L321.1,535.2z"/>
<ellipse transform="matrix(0.9914 -0.1305 0.1305 0.9914 -72.7939 60.2053)" class="st4" cx="423" cy="585.5" rx="5.1" ry="5.1"/>
<path class="st4" d="M310.9,510.6l60.2-12.5l27.3-10.9l-29.1,4.2L310.9,510.6z"/>
<ellipse transform="matrix(0.1305 -0.9914 0.9914 0.1305 -235.9062 902.0488)" class="st4" cx="396.3" cy="585.5" rx="5.1" ry="5.1"/>
<path class="st4" d="M307.5,484.1l61.3,3.5l29.2-3.5l-29.2-3.5L307.5,484.1z"/>
<ellipse transform="matrix(0.3827 -0.9239 0.9239 0.3827 -305.701 699.4562)" class="st4" cx="370.6" cy="578.5" rx="5.1" ry="5.1"/>
<path class="st4" d="M310.9,457.6l58.3,19.3l29.1,4.2L371,470.2L310.9,457.6z"/>
<ellipse transform="matrix(0.6088 -0.7934 0.7934 0.6088 -312.4786 496.8071)" class="st4" cx="347.5" cy="565.2" rx="5.1" ry="5.1"/>
<path class="st4" d="M321.1,433l51.4,33.7l27,11.6L376,460.6L321.1,433z"/>
<ellipse transform="matrix(0.7934 -0.6088 0.6088 0.7934 -264.6499 312.95)" class="st4" cx="328.6" cy="546.3" rx="5.1" ry="5.1"/>
<path class="st4" d="M337.4,411.8l40.9,45.9l23.1,18.2l-18.2-23.1L337.4,411.8z"/>
<ellipse transform="matrix(0.9239 -0.3827 0.3827 0.9239 -176.2332 160.4602)" class="st4" cx="315.2" cy="523.2" rx="5.1" ry="5.1"/>
<path class="st4" d="M358.6,395.6l27.6,54.9l17.6,23.5l-11.6-27L358.6,395.6z"/>
<ellipse transform="matrix(0.9914 -0.1305 0.1305 0.9914 -62.2776 44.4823)" class="st4" cx="308.2" cy="497.4" rx="5.1" ry="5.1"/>
<path class="st4" d="M383.2,385.4l12.5,60.2l10.9,27.3l-4.2-29.1L383.2,385.4z"/>
<ellipse transform="matrix(0.1305 -0.9914 0.9914 0.1305 -198.6922 715.0555)" class="st4" cx="308.3" cy="470.8" rx="5.1" ry="5.1"/>
<path class="st4" d="M409.7,381.9l-3.5,61.3l3.5,29.2l3.5-29.2L409.7,381.9z"/>
<ellipse transform="matrix(0.3827 -0.9239 0.9239 0.3827 -216.5171 565.9755)" class="st4" cx="315.3" cy="445" rx="5.1" ry="5.1"/>
<path class="st4" d="M436.1,385.4l-19.3,58.3l-4.2,29.1l10.9-27.3L436.1,385.4z"/>
<ellipse transform="matrix(0.6088 -0.7934 0.7934 0.6088 -206.0874 425.7949)" class="st4" cx="328.7" cy="421.9" rx="5.1" ry="5.1"/>
<path class="st4" d="M460.8,395.6L427.1,447l-11.6,27l17.6-23.5L460.8,395.6z"/>
<ellipse transform="matrix(0.7934 -0.6088 0.6088 0.7934 -173.539 294.8085)" class="st4" cx="347.5" cy="403" rx="5.1" ry="5.1"/>
<path class="st4" d="M482,411.8l-45.9,40.9l-18.2,23.1l23.1-18.2L482,411.8z"/>
<ellipse transform="matrix(0.9239 -0.3827 0.3827 0.9239 -120.8786 171.4822)" class="st4" cx="370.6" cy="389.6" rx="5.1" ry="5.1"/>
<path class="st4" d="M498.2,433l-54.9,27.6l-23.5,17.6l27-11.6L498.2,433z"/>
<ellipse transform="matrix(0.9914 -0.1305 0.1305 0.9914 -46.5571 54.9858)" class="st4" cx="396.2" cy="382.7" rx="5.1" ry="5.1"/>
<path class="st4" d="M508.4,457.6l-60.2,12.5l-27.2,11l29.1-4.2L508.4,457.6z"/>
<ellipse transform="matrix(0.1305 -0.9914 0.9914 0.1305 -11.772 752.1599)" class="st4" cx="422.9" cy="382.8" rx="5.1" ry="5.1"/>
<path class="st4" d="M511.9,484.1l-61.3-3.5l-29.2,3.5l29.2,3.5L511.9,484.1z"/>
<ellipse transform="matrix(0.3827 -0.9239 0.9239 0.3827 -82.9273 655.1378)" class="st4" cx="448.8" cy="389.6" rx="5.1" ry="5.1"/>
<path class="st4" d="M508.4,510.6l-58.3-19.3l-29.1-4.2l27.3,10.9L508.4,510.6z"/>
<ellipse transform="matrix(0.6088 -0.7934 0.7934 0.6088 -135.0579 532.0994)" class="st4" cx="472" cy="403" rx="5.1" ry="5.1"/>
<path class="st4" d="M498.2,535.2l-51.4-33.7l-27-11.6l23.5,17.6L498.2,535.2z"/>
<ellipse transform="matrix(0.7934 -0.6088 0.6088 0.7934 -155.3798 386.0086)" class="st4" cx="490.9" cy="421.9" rx="5.1" ry="5.1"/>
<path class="st4" d="M482,556.4l-40.9-45.9L418,492.3l18.2,23.1L482,556.4z"/>
<ellipse transform="matrix(0.9239 -0.3827 0.3827 0.9239 -131.9222 226.8043)" class="st4" cx="504.1" cy="445" rx="5.1" ry="5.1"/>
<path class="st4" d="M460.8,572.6l-27.6-54.9l-17.6-23.5l11.6,27L460.8,572.6z"/>
<ellipse transform="matrix(0.9914 -0.1305 0.1305 0.9914 -57.0734 70.7089)" class="st4" cx="511" cy="470.8" rx="5.1" ry="5.1"/>
<path class="st4" d="M436.1,582.8l-12.5-60.2l-10.9-27.3l4.2,29.1L436.1,582.8z"/>
</svg>
